<?xml version="1.0" standalone="no"?>
<!DOCTYPE svg PUBLIC "-//W3C//DTD SVG 1.1//EN" "http://www.w3.org/Graphics/SVG/1.1/DTD/svg11.dtd" >
<svg xmlns="http://www.w3.org/2000/svg">
<metadata>Generated by IcoMoon</metadata>
<defs>
<font id="icomoon" horiz-adv-x="1024">
<font-face units-per-em="1024" ascent="896" descent="-128" />
<missing-glyph horiz-adv-x="1024" />
<glyph unicode="&#x20;" d="" />
<glyph unicode="&#x78;" glyph-name="dayingji" horiz-adv-x="1001" d="M281 543q-27-1-53-1h-83q-18 0-36.5-6t-32.5-18.5-23-32-9-45.5v-76h912v41q0 16-0.5 30t-0.5 18q0 13-5 29t-17 29.5-31.5 22.5-49.5 9h-133v-97h-438v97zM955 310v-52q0-23 0.5-52t0.5-58-10.5-47.5-26-30-33-16-31.5-4.5q-14-1-29.5-0.5t-29.5 0.5h-32l-45 128h-439l-44-128h-63q-20 0-45 1-25 0-41 9.5t-25.5 23-13.5 29.5-4 30v167h911zM163 247q-12 0-21-8.5t-9-21.5 9-21.5 21-8.5q13 0 22 8.5t9 21.5-9 21.5-22 8.5zM316 123q-8-26-14-48-5-19-10.5-37t-7.5-25-3-15 1-14.5 9.5-10.5 21.5-4h365q23 0 34 12t2 38q-5 13-9.5 30.5t-9.5 34.5q-5 19-11 39h-368zM336 498v228q0 11 2.5 23t10 21.5 20.5 15.5 34 6h188q31 0 51.5-14.5t20.5-52.5v-227h-327z" />
<glyph unicode="&#xe534;" glyph-name="zan" horiz-adv-x="1105" d="M908.685 607.414h-182.459l17.065 124.374c0.743 6.389 1.167 13.792 1.167 21.294 0 41.082-12.709 79.195-34.409 110.623l0.426-0.652c-17.412 19.434-42.279 31.88-70.065 32.812l-0.162 0.004c-50.865 2.953-87.291-44.63-98.449-127.327-1.969-14.111-19.033-112.56-91.229-160.8h-104.028c-18.124 0-32.816-14.692-32.816-32.816v0-670.11c0-18.124 14.692-32.816 32.816-32.816h582.162c0.013 0 0.027 0 0.042 0 31.011 0 56.999 21.507 63.861 50.42l0.089 0.446 112.888 487.979c-0.187 108.603-88.269 196.57-196.898 196.57 0 0 0 0 0 0v0zM928.703-62.367h-549.346v604.149h80.072c0.257-0.007 0.56-0.011 0.864-0.011 5.957 0 11.543 1.587 16.359 4.362l-0.159-0.084c27.032 16.324 49.793 36.784 68.159 60.785l0.427 0.581c32.048 42.231 54.311 93.582 62.467 149.509l0.212 1.774c5.579 48.568 22.315 71.54 29.207 71.54 9.549-0.211 18.063-4.47 23.925-11.122l0.031-0.036c11.393-19.223 18.126-42.372 18.126-67.093 0-4.918-0.266-9.774-0.786-14.555l0.052 0.592-18.377-131.265-6.563-46.927c0-6.891-2.625-18.049 3.61-18.705 8.687-0.616 18.824-0.967 29.042-0.967s20.355 0.351 30.398 1.042l-1.356-0.075h193.945c0.054 0 0.117 0 0.181 0 70.072 0 127.32-54.905 131.070-124.041l0.014-0.333zM176.552 605.774h-110.919c-36.248 0-65.633-29.385-65.633-65.633v0-601.195c0-36.248 29.385-65.633 65.633-65.633v0h110.919c36.248 0 65.633 29.385 65.633 65.633v601.195c0 36.248-29.385 65.633-65.633 65.633v0zM176.552-61.055h-110.919v601.195h110.919z" />
<glyph unicode="&#xe600;" glyph-name="sousuo" horiz-adv-x="1027" d="M722.489 253.156c45.511 62.577 73.955 136.533 73.955 216.177 0 204.8-164.977 369.778-369.777 369.778s-369.778-164.978-369.778-369.778 164.978-369.777 369.778-369.777c79.644 0 153.6 28.444 216.177 68.266l221.867-221.866c22.756-22.756 56.889-22.756 79.645 0s22.755 56.888 0 79.644l-221.867 227.556zM426.667 156.444c-170.667 0-312.89 142.223-312.89 312.89s142.223 312.887 312.891 312.887 312.888-142.221 312.888-312.888-142.223-312.889-312.89-312.889" />
<glyph unicode="&#xe601;" glyph-name="iconfuzhi" d="M512.852-64.993h-297.828c-44.966 0-84.409 38.277-84.409 81.927 0 99.942 103.813 247.439 209.579 297.759 12.917 6.17 28.419 0.664 34.584-12.284 6.158-12.943 0.653-28.426-12.284-34.585-95.242-45.309-179.981-178.035-179.981-250.89 0-15.154 16.104-30.029 32.511-30.029h297.827c14.33 0 25.948-11.619 25.948-25.949s-11.617-25.949-25.947-25.949zM810.679-64.993h-297.827c-14.33 0-25.949 11.619-25.949 25.948 0 14.33 11.619 25.949 25.949 25.949h297.827c16.409 0 32.511 14.875 32.511 30.029 0 72.854-84.739 205.58-179.981 250.89-12.937 6.158-18.441 21.641-12.284 34.585 6.157 12.936 21.635 18.453 34.584 12.284 105.764-50.32 209.579-197.816 209.579-297.759 0-43.648-39.442-81.926-84.409-81.926zM516.741 318.227c-140.665 0-255.103 114.438-255.103 255.103 0 140.66 114.438 255.097 255.103 255.097 140.66 0 255.097-114.438 255.097-255.103 0-140.66-114.437-255.097-255.097-255.097zM516.741 776.529c-112.049 0-203.206-91.157-203.206-203.2 0-112.050 91.157-203.206 203.206-203.206 112.043 0 203.199 91.156 203.199 203.199 0 112.051-91.156 203.207-203.199 203.207zM370.52 560.356c-7.165 0-12.974 5.809-12.974 12.974 0 87.779 71.417 159.189 159.196 159.189 7.165 0 12.976-5.809 12.976-12.974s-5.81-12.974-12.976-12.974c-73.474 0-133.247-59.772-133.247-133.241 0-7.164-5.809-12.973-12.974-12.973zM397.438 520.887c0-7.241-5.873-13.114-13.114-13.114-7.235 0-13.108 5.873-13.108 13.114 0 7.235 5.873 13.108 13.108 13.108 7.241 0.001 13.114-5.872 13.114-13.108z" />
<glyph unicode="&#xe602;" glyph-name="playlist" d="M924.542-35.836c53.248 31.744 53.248 83.968 0 116.735l-129.023 77.824c-54.272 31.744-97.28 7.168-97.28-55.296v-162.815c0-61.44 43.008-87.040 97.28-54.272l129.023 77.824zM903.038 386.050h-803.836c-28.672 0-51.2 23.552-51.2 51.2s22.528 51.2 51.2 51.2h803.836c27.648 0 51.2-22.528 51.2-51.2s-23.552-51.2-51.2-51.2zM484.224-21.5h-385.022c-28.672 0-51.2 22.528-51.2 51.2s22.528 51.2 51.2 51.2h385.022c27.648 0 51.2-22.528 51.2-51.2s-23.552-51.2-51.2-51.2zM914.302 794.624h-815.1c-28.672 0-51.2 22.528-51.2 50.176 0 28.672 22.528 51.2 51.2 51.2h815.1c28.672 0 51.2-22.528 51.2-51.2 0-27.648-22.528-50.176-51.2-50.176z" />
<glyph unicode="&#xe603;" glyph-name="yinbiao" d="M512-76.8c-253.952 0-460.8 206.848-460.8 460.8s206.848 460.8 460.8 460.8 460.8-206.848 460.8-460.8c0-17.408-13.312-30.72-30.72-30.72s-30.72 13.312-30.72 30.72c0 220.16-179.2 399.36-399.36 399.36s-399.36-179.2-399.36-399.36 179.2-399.36 399.36-399.36c17.408 0 30.72-13.312 30.72-30.72s-13.312-30.72-30.72-30.72zM512-76.8c-253.952 0-460.8 206.848-460.8 460.8s206.848 460.8 460.8 460.8 460.8-206.848 460.8-460.8c0-83.968-22.528-164.864-65.536-236.544-9.216-14.336-27.648-19.456-41.984-10.24s-19.456 27.648-10.24 41.984c36.864 61.44 56.32 133.12 56.32 204.8 0 220.16-179.2 399.36-399.36 399.36s-399.36-179.2-399.36-399.36 179.2-399.36 399.36-399.36c91.136 0 177.152 29.696 247.808 87.040 6.144 5.12 13.312 11.264 19.456 16.384 5.12 4.096 9.216 9.216 14.336 13.312 12.288 12.288 31.744 12.288 43.008 0 12.288-12.288 12.288-31.744 0-43.008-5.12-5.12-10.24-10.24-16.384-15.36-7.168-6.144-14.336-13.312-22.528-19.456-80.896-65.536-180.224-100.352-285.696-100.352zM752.64 543.744c-9.216 0-18.432 4.096-24.576 11.264-41.984 53.248-102.4 89.088-169.984 101.376-16.384 3.072-27.648 18.432-24.576 35.84 3.072 16.384 18.432 27.648 35.84 24.576 81.92-14.336 155.648-57.344 206.848-122.88 10.24-13.312 8.192-32.768-5.12-43.008-5.12-5.12-11.264-7.168-18.432-7.168zM381.952 100.352c-23.552 0-47.104 6.144-68.608 18.432-31.744 18.432-55.296 48.128-64.512 83.968s-5.12 72.704 13.312 104.448c18.432 31.744 48.128 55.296 83.968 64.512l73.728 19.456c35.84 9.216 72.704 5.12 104.448-13.312s55.296-48.128 64.512-83.968c9.216-35.84 5.12-72.704-13.312-104.448s-48.128-55.296-83.968-64.512l-73.728-19.456c-11.264-3.072-23.552-5.12-35.84-5.12zM455.68 334.848c-7.168 0-13.312-1.024-19.456-3.072l-73.728-19.456c-19.456-5.12-35.84-18.432-46.080-35.84s-13.312-38.912-7.168-58.368c5.12-19.456 18.432-35.84 35.84-46.080s38.912-13.312 58.368-7.168l73.728 19.456c18.432 5.12 34.816 18.432 45.056 35.84s13.312 38.912 7.168 58.368c-5.12 19.456-18.432 35.84-35.84 46.080-11.264 7.168-24.576 10.24-37.888 10.24zM563.2 230.4c-17.408 0-30.72 13.312-30.72 30.72v419.84c0 17.408 13.312 30.72 30.72 30.72s30.72-13.312 30.72-30.72v-419.84c0-17.408-13.312-30.72-30.72-30.72z" />
<glyph unicode="&#xe605;" glyph-name="tubiaozhizuomoban" d="M932.2 402.1c-9 0-16.3-7.3-16.3-16.3 0-225.1-183.1-408.2-408.2-408.2s-408.2 183.1-408.2 408.2 183.1 408.2 408.2 408.2c9 0 16.3 7.3 16.3 16.3s-7.3 16.3-16.3 16.3c-243.1 0-440.9-197.8-440.9-440.9s197.8-440.9 440.9-440.9 440.9 197.8 440.9 440.9c0 9.1-7.3 16.4-16.4 16.4zM589.4 794c0-9.002 7.298-16.3 16.3-16.3s16.3 7.298 16.3 16.3v0c0 9.002-7.298 16.3-16.3 16.3s-16.3-7.298-16.3-16.3v0zM899.6 483.7c0-9.002 7.298-16.3 16.3-16.3s16.3 7.298 16.3 16.3v0c0 9.002-7.298 16.3-16.3 16.3s-16.3-7.298-16.3-16.3v0zM905 577.1c-5.8 11.9-12.1 23.7-18.9 35-44.6 74.3-108.7 133-186.2 170.5-1.8 0.9-3.6 1.3-5.4 1.5-2.2 1-4.6 1.6-7.1 1.6-9 0-16.3-7.3-16.3-16.3v-297.4c-24 27.2-59 44.3-98 44.3-72 0-130.6-58.6-130.6-130.6s58.5-130.6 130.5-130.6 130.6 58.6 130.6 130.6c0 2-0.1 4.1-0.1 6.1 0.1 0.7 0.1 1.4 0.1 2.1v350c63.2-34.8 117.2-86.5 154.4-148.5 6.2-10.4 12-21.1 17.3-32 3.9-8 13.2-11.7 21.3-8.1 8.4 3.7 12.4 13.6 8.4 21.8zM573 287.8c-54 0-98 43.9-98 98s43.9 98 98 98c54 0 98-43.9 98-98s-44-98-98-98zM491.4 173.5c-81 0-147 65.9-147 147 0 9-7.3 16.3-16.3 16.3s-16.3-7.3-16.3-16.3c0-99 80.6-179.6 179.6-179.6 9 0 16.3 7.3 16.3 16.3s-7.3 16.3-16.3 16.3z" />
<glyph unicode="&#xe606;" glyph-name="fanhui" d="M1000.727 407.273h-923.927l314.182 335.127c9.309 9.309 9.309 23.273 0 32.582s-23.273 9.309-32.582 0l-351.418-374.691c-9.309-9.309-9.309-23.273 0-32.582l351.418-374.691c9.309-9.309 23.273-9.309 32.582 0s9.309 23.273 0 32.582l-314.182 335.127h923.927c13.964 0 23.273 9.309 23.273 23.273s-9.309 23.273-23.273 23.273z" />
<glyph unicode="&#xe609;" glyph-name="i-more" d="M411.409 691.2c0 56.457 45.943 102.4 102.4 102.4s102.4-45.943 102.4-102.4-45.943-102.4-102.4-102.4-102.4 45.943-102.4 102.4zM411.409 384c0 56.457 45.943 102.4 102.4 102.4s102.4-45.943 102.4-102.4-45.943-102.4-102.4-102.4-102.4 45.943-102.4 102.4zM411.409 76.8c0 56.457 45.943 102.4 102.4 102.4s102.4-45.943 102.4-102.4-45.943-102.4-102.4-102.4-102.4 45.943-102.4 102.4z" />
<glyph unicode="&#xe60b;" glyph-name="pinglun" d="M281.535 508.638c-31.806 0-57.665-26.764-57.665-59.733s25.859-59.733 57.665-59.733 57.665 26.764 57.665 59.733c0 33.099-25.859 59.733-57.665 59.733zM512.065 508.638c-31.806 0-57.665-26.764-57.665-59.733s25.729-59.733 57.665-59.733c31.806 0 57.535 26.764 57.535 59.733 0 33.099-25.859 59.733-57.535 59.733zM742.465 508.638c-31.806 0-57.665-26.764-57.665-59.733s25.859-59.733 57.665-59.733 57.665 26.764 57.665 59.733c-0.129 33.099-25.859 59.733-57.665 59.733zM857.665 778.861h-691.329c-63.612 0-115.2-53.527-115.2-119.596v-390.982c0-65.939 52.752-126.836 117.786-126.836h175.58c30.513-32.582 157.22-149.98 157.22-149.98 5.56-5.818 14.739-5.818 20.299 0 0 0 92.832 91.41 153.212 149.98h179.717c65.034 0 117.786 60.897 117.786 126.836v391.111c0.129 65.939-51.459 119.467-115.071 119.467zM915.2 268.283c0-32.97-27.669-67.62-60.251-67.62h-176.614c-21.463 0-40.727-21.98-40.727-21.98l-124.121-114.941-124.121 114.941s-23.661 21.98-43.83 21.98h-176.614c-32.582 0-60.251 34.651-60.251 67.62v391.111c0 32.97 25.729 59.733 57.665 59.733h691.329c31.806 0 57.535-26.764 57.535-59.733v-391.111zM915.2 268.283" />
<glyph unicode="&#xe60e;" glyph-name="yonghu" d="M393.846 791.001c108.544 0 196.923-88.773 196.923-197.868s-88.379-197.868-196.923-197.868-196.923 88.773-196.923 197.868 88.379 197.868 196.923 197.868M393.846 869.77c-152.261 0-275.692-123.825-275.692-276.638s123.431-276.638 275.692-276.638 275.692 123.825 275.692 276.638-123.431 276.638-275.692 276.638zM748.308-114.846c-21.752 0-39.385 17.633-39.385 39.385v0 74.279c0 174.474-141.312 316.337-315.077 316.337s-315.077-141.863-315.077-316.337v-74.279c0-21.752-17.633-39.385-39.385-39.385s-39.385 17.633-39.385 39.385v0 74.279c0 217.876 176.679 395.106 393.846 395.106s393.846-177.231 393.846-395.106v-74.279c0-21.752-17.633-39.385-39.385-39.385v0zM776.35 343.119c-0.062 0-0.136-0.001-0.21-0.001-21.752 0-39.385 17.633-39.385 39.385 0 19.433 14.074 35.579 32.585 38.8l0.235 0.034c55.867 10.513 97.568 58.922 97.568 117.071 0 39.978-19.711 75.353-49.944 96.936l-0.362 0.246c-18.867 13.436-42.385 21.481-67.782 21.481-7.223 0-14.294-0.651-21.158-1.897l0.718 0.108c-1.423-0.182-3.068-0.286-4.738-0.286-21.752 0-39.385 17.633-39.385 39.385 0 18.542 12.814 34.092 30.069 38.276l0.269 0.055c10.394 1.966 22.35 3.091 34.569 3.091 42.231 0 81.324-13.433 113.24-36.26l-0.59 0.401c50.954-36.265 83.791-95.114 83.791-161.632 0-96.811-69.554-177.377-161.418-194.452l-1.221-0.189c-2.038-0.322-4.409-0.522-6.821-0.551h-0.032zM985.403 19.535c-21.752 0-39.385 17.633-39.385 39.385v56.005c0 0.047 0 0.103 0 0.159 0 125.736-101.727 227.712-227.368 228.114h-0.038c-21.752 0-39.385 17.633-39.385 39.385s17.633 39.385 39.385 39.385v0c169.192-0.448 306.176-137.708 306.176-306.963 0-0.028 0-0.056 0-0.084v0.004-56.005c0-21.752-17.633-39.385-39.385-39.385v0z" />
<glyph unicode="&#xe60f;" glyph-name="diepian" d="M510.866-62.389c-119.428 0-231.698 46.519-316.147 130.967-174.327 174.315-174.327 457.964 0 632.286 84.449 84.449 196.72 130.956 316.147 130.956s231.697-46.506 316.144-130.948c174.328-174.327 174.328-457.977 0-632.292-84.447-84.448-196.718-130.968-316.144-130.968zM510.866 751.601c-98.002 0-190.127-38.163-259.43-107.459-143.046-143.046-143.046-375.801 0-518.846 69.302-69.29 161.428-107.467 259.43-107.467 98 0 190.126 38.176 259.43 107.467 143.044 143.045 143.044 375.8 0 518.853-69.303 69.288-161.43 107.452-259.43 107.452zM510.866 231.75c-40.867 0-79.28 15.909-108.159 44.803-59.642 59.64-59.642 156.689 0 216.33 28.88 28.893 67.293 44.803 108.159 44.803s79.277-15.91 108.158-44.803c28.892-28.893 44.809-67.305 44.809-108.166s-15.917-79.271-44.809-108.164c-28.882-28.894-67.293-44.803-108.158-44.803zM510.866 457.468c-19.428 0-37.709-7.566-51.444-21.301-28.358-28.372-28.358-74.526 0-102.897 13.735-13.736 32.015-21.301 51.444-21.301 19.426 0 37.706 7.566 51.442 21.301 28.359 28.371 28.359 74.524 0 102.897-13.736 13.735-32.014 21.301-51.442 21.301zM629.141 527.325c-5.744 0-11.514 1.835-16.398 5.628-11.66 9.060-13.76 25.865-4.7 37.524l76.799 98.804c9.073 11.659 25.863 13.748 37.523 4.7 11.661-9.061 13.761-25.865 4.701-37.525l-76.798-98.803c-5.274-6.775-13.161-10.328-21.126-10.328zM680.231 476.277c-7.962 0-15.849 3.545-21.124 10.327-9.062 11.659-6.96 28.461 4.7 37.524l98.797 76.791c11.646 9.068 28.437 6.985 37.525-4.7 9.060-11.66 6.96-28.462-4.702-37.525l-98.797-76.79c-4.882-3.794-10.653-5.627-16.398-5.627zM315.764 89.821c-5.745 0-11.515 1.841-16.398 5.628-11.66 9.060-13.761 25.863-4.7 37.524l76.784 98.803c9.074 11.685 25.864 13.761 37.525 4.708 11.659-9.061 13.761-25.86 4.699-37.517l-76.784-98.817c-5.274-6.778-13.161-10.329-21.125-10.329zM242.728 162.885c-7.965 0-15.851 3.545-21.126 10.328-9.061 11.659-6.96 28.462 4.7 37.524l98.797 76.797c11.633 9.055 28.449 6.979 37.524-4.7 9.060-11.66 6.96-28.463-4.7-37.524l-98.797-76.798c-4.882-3.792-10.654-5.627-16.397-5.627z" />
<glyph unicode="&#xe610;" glyph-name="gequfanhui" d="M128 793.6v-825.6c0-17.673 14.327-32 32-32s32 14.327 32 32v825.6c0 17.673-14.327 32-32 32s-32-14.327-32-32zM774.028 752.205l-404.352-331.090c-27.383-22.42-27.435-58.886 0-81.35l404.352-331.090c27.382-22.42 49.676-12.003 49.676 23.366v696.799c0 35.646-22.24 45.83-49.676 23.365zM733.482 801.723c69.12 56.597 154.222 16.897 154.222-72.883v-696.8c0-89.481-85.14-129.447-154.222-72.883l-404.352 331.090c-58.7 48.064-58.662 132.353 0 180.386l404.352 331.090z" />
<glyph unicode="&#xe611;" glyph-name="gequtiaoguo" d="M889.6-25.6v825.6c0 17.673-14.327 32-32 32s-32-14.327-32-32v-825.6c0-17.673 14.327-32 32-32s32 14.327 32 32zM243.572 15.795l404.352 331.090c27.383 22.42 27.435 58.886 0 81.35l-404.352 331.090c-27.382 22.42-49.676 12.003-49.676-23.366v-696.799c0-35.646 22.24-45.83 49.676-23.365zM284.118-33.723c-69.12-56.597-154.222-16.897-154.222 72.883v696.8c0 89.481 85.14 129.447 154.222 72.883l404.352-331.090c58.7-48.064 58.662-132.353 0-180.386l-404.352-331.090z" />
<glyph unicode="&#xe612;" glyph-name="fenleimenu2" d="M491.266 230.808c-19.565 0-38.772 5.075-57.091 15.083-28.51 15.576-326.123 189.453-338.778 196.847l-1.344 0.832c-4.595 3.012-27.594 19.456-29.207 47.466-0.734 12.747 2.873 31.684 24.228 49.5l2.529 2.109 402.605 210.445c6.484 4.038 25.806 14.559 51.126 14.559 18.049 0 35.199-5.161 50.974-15.338 37.943-24.479 331.771-207.441 334.734-209.287l0.588-0.376c4.937-3.233 29.563-20.837 29.465-50.071-0.045-13.561-5.595-33.272-31.782-50.167-29.959-19.331-345.514-178.076-386.344-198.597-6.249-3.615-25.053-13.005-51.704-13.005zM130.176 493.528c35.548-20.765 307.381-179.522 333.435-193.756 9.189-5.020 18.493-7.566 27.654-7.566 11.253 0 19.254 3.868 20.804 4.677l1.513 1.049 0.844 0.253c139.635 70.175 353.53 178.711 380.394 195.065-36.099 22.48-295.352 183.954-331.799 207.468-5.77 3.723-11.556 5.533-17.688 5.533-9.917 0-18.059-4.862-18.13-4.911l-1.61-1.124-395.418-206.687zM955.967 355.031c0 16.404-14.1 29.71-31.493 29.71-7.565 0-14.504-2.517-19.934-6.715l-0.136 0.203c-21.338-13.42-245.851-124.473-391.554-195.848l-0.863-0.26-1.549-1.043c-3.419-1.821-23.626-11.303-50.298 2.901-27.615 14.705-324.165 183.549-344.873 195.345-5.366 4.004-12.141 6.399-19.512 6.399-17.394 0-31.494-13.306-31.494-29.71 0-12.143 7.727-22.578 18.792-27.185l-0.046-0.076c12.983-7.394 318.293-181.261 347.534-196.833 20.681-11.014 40.76-14.965 58.464-14.965 22.724 0 41.536 6.51 52.688 12.956 41.796 20.476 356.866 174.976 394.766 197.643 11.447 4.448 19.508 15.072 19.508 27.477zM955.967 237.176c0 16.409-14.1 29.711-31.493 29.711-7.565 0-14.504-2.517-19.934-6.712l-0.136 0.203c-21.338-13.419-245.851-124.476-391.554-195.851l-0.863-0.26-1.549-1.044c-3.419-1.821-23.626-11.302-50.298 2.902-27.615 14.705-324.165 183.554-344.873 195.345-5.366 4.003-12.141 6.399-19.512 6.399-17.394 0-31.494-13.302-31.494-29.71 0-12.144 7.727-22.578 18.792-27.186l-0.046-0.075c12.983-7.394 318.293-181.262 347.534-196.833 20.681-11.015 40.76-14.966 58.464-14.966 22.724 0 41.536 6.51 52.688 12.957 41.796 20.476 356.866 174.975 394.766 197.642 11.447 4.448 19.508 15.072 19.508 27.477z" />
<glyph unicode="&#xe613;" glyph-name="paihang" d="M731.456-79.168h-438.912v879.68c0 53.568 42.88 95.488 97.536 95.488h243.84c54.656 0 97.472-41.92 97.472-95.488v-879.68zM341.312-30.464h341.312v830.976c0 26.24-21.44 46.72-48.704 46.72h-243.84c-27.328 0-48.768-20.544-48.768-46.72v-830.976zM341.312-79.168h-243.776c-53.76 0-97.536 43.712-97.536 97.472v512c0 53.76 43.776 97.536 97.536 97.536h243.776v-707.008zM97.536 579.072c-26.919-0.036-48.732-21.849-48.768-48.764v-512.004c0-26.88 21.888-48.768 48.768-48.768h195.008v609.536h-195.008zM926.528-79.168h-243.904v560.704h243.904c53.632 0 97.472-43.776 97.472-97.536v-365.696c0-53.76-43.84-97.472-97.472-97.472zM731.456-30.464h195.072c26.88 0 48.704 21.888 48.704 48.768v365.696c0 26.911-21.798 48.732-48.701 48.768h-195.075v-463.232z" />
<glyph unicode="&#xe614;" glyph-name="gengduo" d="M0 711.68h153.6v102.4h-153.6v-102.4zM307.2 814.080v-102.4h716.8v102.4h-716.8zM0 353.28h153.6v102.4h-153.6v-102.4zM307.2 353.28h716.8v102.4h-716.8v-102.4zM0-5.12h153.6v102.4h-153.6v-102.4zM307.2-5.12h716.8v102.4h-716.8v-102.4z" />
<glyph unicode="&#xe615;" glyph-name="cloud" d="M829.248 475.424c-13.984 146.016-135.552 260.576-285.248 260.576-115.808 0-214.944-68.736-260.672-167.36-12.885 4.46-27.741 7.137-43.191 7.359l-0.105 0.001c-79.522-0.018-143.982-64.478-144-143.998v-0.002c0-15.808 3.168-30.752 7.872-44.928-61.856-36.064-103.872-102.24-103.872-179.008 0-114.875 93.125-208 208-208v0-0.064l575.968 0.064c132.576 0 240 107.424 240 240 0 116.992-83.872 214.176-194.752 235.36zM784 64.064v-0.064h-575.968c-79.493 0.145-143.891 64.566-144 144.053v0.011c0 51.2 26.976 97.44 72.128 123.744 43.872 25.184 46.88 30.176 28.48 75.424-2.722 7.335-4.393 15.807-4.606 24.641l-0.002 0.095c0 44.128 35.872 80 80 80 0 0 20.992 1.504 43.296-7.36 36.704-14.624 40.704-0.64 58.048 37.088 36.704 79.136 116.224 130.304 202.624 130.304 115.2 0 210.432-87.136 221.568-202.688 3.936-45.824 3.936-45.824 51.68-56.736 81.789-16.1 142.645-87.184 142.752-172.5v-0.012c0-97.056-78.944-176-176-176z" />
<glyph unicode="&#xe616;" glyph-name="exit" d="M512-69.76c-2.198-0.045-4.79-0.071-7.388-0.071-212.077 0-384 171.923-384 384 0 144.366 79.666 270.124 197.433 335.712l1.955 0.999 48-83.2c-87.463-51.174-145.28-144.651-145.28-251.632 0-160.472 130.088-290.56 290.56-290.56s290.56 130.088 290.56 290.56c0 106.981-57.817 200.459-143.909 250.89l-1.371 0.742 45.44 83.2c119.722-66.587 199.388-192.346 199.388-336.711 0-212.077-171.923-384-384-384-2.598 0-5.189 0.026-7.775 0.077l0.387-0.006zM448 768h128v-384h-128v384z" />
<glyph unicode="&#xe61c;" glyph-name="kafei" horiz-adv-x="1026" d="M408.039-94.5c-127.55 0-228.399 37.292-299.745 110.839-109.902 113.293-108.543 271.155-108.255 283.575v235.586h816v-241.584c0.287-12.32 1.568-166-106.443-277.4-71.423-73.665-172.882-111.016-301.557-111.016zM64.039 471.5v-172.486l-0.015-0.485c-0.007-0.292-0.807-36.484 10.326-84.192 10.002-42.859 32.050-104.344 80.29-153.855 58.818-60.37 144.074-90.98 253.399-90.98 110.43 0 196.285 30.659 255.182 91.127 47.297 48.558 68.91 108.434 78.713 150.113 10.912 46.394 10.128 81.494 10.118 81.844l-0.015 0.494 0.002 0.422v178h-688zM164.689 590.308c-21.38 0-52.861 2.453-75.588 24.338-10.228 9.85-22.531 27.783-23.058 57.282-0.371 20.785 6.371 38.588 20.038 52.917 10.327 10.826 22.761 17.728 33.731 23.817 21.512 11.94 26.607 16.168 27.26 30.313 0.368 7.966-1.971 11.408-4.306 13.725-10.549 10.464-38.413 13.537-50.992 12.847l-3.473 63.906c6.593 0.357 65.418 2.524 99.534-31.314 16.287-16.154 24.298-37.633 23.168-62.114-1.045-22.654-8.948-41.907-23.488-57.225-11.549-12.167-24.881-19.567-36.645-26.096-20.981-11.646-20.948-13.497-20.838-19.632 0.108-6.071 1.273-10.217 3.461-12.325 7.238-6.969 29.729-6.522 39.328-6.332 2.328 0.046 4.441 0.085 6.288 0.085v-64c-1.473 0-3.16-0.036-5.017-0.073-2.822-0.056-5.985-0.119-9.403-0.119zM412.396 590.308c-21.38 0-52.861 2.453-75.588 24.338-10.228 9.85-22.531 27.783-23.058 57.282-0.371 20.785 6.371 38.588 20.038 52.917 10.327 10.826 22.761 17.728 33.731 23.817 21.512 11.94 26.607 16.168 27.26 30.313 0.368 7.966-1.971 11.408-4.306 13.725-10.55 10.464-38.411 13.537-50.992 12.847l-3.473 63.906c6.593 0.357 65.418 2.524 99.534-31.314 16.287-16.154 24.298-37.633 23.168-62.114-1.045-22.654-8.948-41.907-23.488-57.225-11.549-12.167-24.881-19.567-36.645-26.096-20.981-11.646-20.948-13.497-20.838-19.632 0.108-6.071 1.273-10.217 3.461-12.325 7.238-6.969 29.727-6.522 39.328-6.332 2.328 0.046 4.441 0.085 6.288 0.085v-64c-1.473 0-3.16-0.036-5.017-0.073-2.822-0.056-5.985-0.119-9.403-0.119zM674.674 590.308c-21.38 0-52.862 2.455-75.588 24.339-10.228 9.849-22.53 27.782-23.058 57.282-0.371 20.785 6.371 38.588 20.038 52.917 10.327 10.826 22.761 17.728 33.731 23.817 21.512 11.94 26.606 16.168 27.26 30.313 0.367 7.966-1.971 11.408-4.306 13.725-10.551 10.464-38.416 13.538-50.992 12.847l-3.473 63.906c6.594 0.356 65.416 2.526 99.534-31.314 16.286-16.154 24.298-37.633 23.168-62.114-1.045-22.654-8.948-41.907-23.488-57.225-11.549-12.167-24.881-19.567-36.644-26.096-20.981-11.646-20.948-13.497-20.839-19.632 0.108-6.070 1.272-10.217 3.461-12.324 7.239-6.97 29.727-6.524 39.329-6.333 2.327 0.046 4.44 0.085 6.287 0.085v-64c-1.474 0-3.159-0.036-5.017-0.073-2.823-0.057-5.984-0.12-9.403-0.12zM891.622 269.811c-73.612 0-133.5 59.888-133.5 133.5s59.888 133.5 133.5 133.5 133.5-59.888 133.5-133.5c0-73.613-59.888-133.5-133.5-133.5zM891.622 472.811c-38.322 0-69.5-31.178-69.5-69.5s31.178-69.5 69.5-69.5 69.5 31.178 69.5 69.5c0 38.322-31.178 69.5-69.5 69.5z" />
<glyph unicode="&#xe61e;" glyph-name="shipinbofang" d="M204.8 659.2c-10.604 0-19.2-8.596-19.2-19.2v0-512c0-10.598 8.602-19.2 19.2-19.2h614.4c10.604 0 19.2 8.596 19.2 19.2v0 512c0 10.604-8.596 19.2-19.2 19.2h-614.4zM204.8 723.2h614.4c45.926 0 83.2-37.274 83.2-83.2v-512c0-45.926-37.274-83.2-83.2-83.2h-614.4c-45.95 0-83.2 37.25-83.2 83.2v0 512c0 45.926 37.274 83.2 83.2 83.2zM670.771 410.982c4.698-7.707 7.48-17.030 7.48-27.003 0-19.001-10.098-35.643-25.22-44.853l-0.232-0.131-195.738-117.402c-7.703-4.691-17.018-7.468-26.982-7.468-28.963 0-52.447 23.463-52.48 52.418v234.909c0.033 28.959 23.517 52.421 52.48 52.421 9.964 0 19.28-2.777 27.215-7.599l-0.233 0.131 195.738-117.35c7.373-4.454 13.568-10.598 17.971-18.022zM441.6 481.126v-194.202l161.792 97.075-161.792 97.075z" />
<glyph unicode="&#xe61f;" glyph-name="musicmenu" d="M915.17 661.33c24.73 0 44.79 17.92 44.79 40s-20.060 40-44.79 40h-806.36c-24.74 0-44.81-17.91-44.81-40s20.070-40 44.81-40zM915.17 344c24.73 0 44.79 17.93 44.79 40s-20.020 40-44.79 40h-454.36c-24.74 0-44.81-17.91-44.81-40s20.070-40 44.81-40zM70.33 397.82c-3.89-3.448-6.33-8.458-6.33-14.037 0-4.71 1.738-9.014 4.609-12.305l-0.019 0.022c0.46-0.58 1.16-1.16 1.74-1.75l192.31-167.75c1.632-1.405 3.771-2.26 6.11-2.26 5.179 0 9.378 4.193 9.39 9.369v349.811c-0.012 5.149-4.189 9.319-9.34 9.319-2.365 0-4.525-0.879-6.17-2.328l0.010 0.009zM108.81 106.67c-24.74 0-44.81-17.92-44.81-40s20.070-40 44.81-40h806.36c24.73 0 44.79 17.91 44.79 40s-20.060 40-44.79 40z" />
<glyph unicode="&#xe621;" glyph-name="yonghu3" d="M735.342 237.473c-51.84 0-94.018-42.192-94.018-94.032 0-51.849 42.178-94.042 94.018-94.042 51.854 0 94.032 42.192 94.032 94.042 0 51.84-42.178 94.032-94.032 94.032zM735.342 97.856c-25.134 0-45.577 20.452-45.577 45.586 0 25.125 20.442 45.577 45.577 45.577 25.139 0 45.591-20.452 45.591-45.577 0-25.134-20.452-45.586-45.591-45.586zM983.952 192.569c-3.529 18.62-15.476 30.656-30.818 30.656h-2.128c-29.348 0-53.241 23.878-53.241 53.222 0 7.706 3.37 17.173 4.65 20.14 7.266 16.367 1.673 36.452-14.475 47.635l-62.249 34.467c-4.878 2.105-10.149 3.181-15.671 3.181-11.276 0-22.417-4.595-29.798-12.245-7.757-7.993-28.352-24.489-42.539-24.489-14.317 0-35.042 16.817-42.813 24.93-7.418 7.84-18.662 12.523-30.063 12.523-5.462 0-10.655-1.043-15.319-3.060l-1.163-0.477-63.348-34.792-1.507-0.974c-14.725-10.247-20.349-30.323-13.131-46.545 0.482-1.159 4.716-11.461 4.716-20.294 0-29.344-23.887-53.222-53.25-53.222h-2.481c-14.968 0-26.926-12.037-30.452-30.675-0.538-2.865-5.253-28.612-5.253-49.425 0-20.822 4.716-46.564 5.253-49.457 3.526-18.615 15.473-30.652 30.823-30.652h2.105c29.362 0 53.255-23.883 53.255-53.222 0-7.706-3.37-17.173-4.65-20.145-7.256-16.343-1.683-36.41 14.41-47.631l61.076-34.031c4.868-2.114 10.14-3.208 15.676-3.208 11.48 0 22.742 4.804 30.1 12.829 7.521 8.165 28.881 26.047 43.471 26.047 14.744 0 35.863-17.92 43.759-26.581 7.409-8.165 18.745-13.033 30.318-13.033 5.443 0 10.627 1.043 16.927 3.834l61.753 34.119 1.479 0.979c14.707 10.223 20.317 30.28 13.107 46.522-0.482 1.163-4.716 11.461-4.716 20.299 0 29.339 23.891 53.222 53.241 53.222h2.452c14.999 0 26.961 12.037 30.475 30.606 0.046 0.26 5.267 27.606 5.267 49.504 0 20.813-4.711 46.559-5.248 49.443zM937.677 110.602c-50.143-6.561-88.347-49.378-88.347-100.806 0-11.874 2.865-23.15 5.388-30.782l-44.561-24.634c-4.006 3.927-10.4 9.811-18.323 15.685-19.696 14.614-38.775 22.051-56.69 22.051-17.767 0-36.693-7.293-56.268-21.638-7.808-5.74-14.137-11.434-18.207-15.379l-42.595 23.831c2.527 7.645 5.415 18.991 5.415 30.865 0 51.428-38.195 94.245-88.343 100.806-1.284 8.3-3.083 21.829-3.083 32.525 0 10.743 1.79 24.234 3.083 32.511 50.138 6.565 88.343 49.392 88.343 100.81 0 11.842-2.865 23.113-5.383 30.749l45.994 25.241c3.992-3.756 10.395-9.408 18.263-15.008 19.311-13.765 37.931-20.752 55.322-20.752 17.22 0 35.682 6.853 54.863 20.363 7.803 5.481 14.123 10.96 18.147 14.697l44.042-24.472c-2.522-7.641-5.402-18.945-5.402-30.818 0-51.427 38.19-94.245 88.334-100.81 1.313-8.448 3.097-21.912 3.097-32.52-0.001-10.678-1.78-24.1-3.088-32.515zM97.657-27.078v53.25c0 181.054 139.622 330.267 317.506 347.084l-0.077 0.037c0 0 0.179 0 0.464-0.009 10.905 1.025 21.937 1.599 33.106 1.599 1.681 0 3.338-0.093 5.012-0.112 39.34 3.051 98.868 12.294 129.979 40.063l15.226 11.867c59.477 46.446 93.592 115.835 93.592 190.362 0 133.547-109.388 242.188-243.856 242.188s-243.855-108.641-243.855-242.187c0-74.528 34.117-143.917 93.593-190.362l15.221-11.867-17.935-7.121c-158.446-62.908-260.828-212.669-260.828-381.543v-84.402c0-17.182 14.088-31.162 31.421-31.162h459.157c-14.948 19.144-27.689 40.027-37.988 62.314h-389.736zM267.606 617.065c0 99.188 81.193 179.878 181.001 179.878 99.806 0 181.013-80.69 181.013-179.878 0-99.189-81.207-179.876-181.013-179.876-99.808 0.001-181.001 80.686-181.001 179.876z" />
<glyph unicode="&#xe628;" glyph-name="youjiantou" d="M722.438 385.185c-0.246 0.246-0.513 0.454-0.766 0.69l-299.893 299.892c-14.231 14.24-37.291 14.24-51.529 0-14.241-14.231-14.241-37.291 0-51.529l274.851-274.859-274.849-274.851c-14.241-14.237-14.241-37.301 0-51.532 7.116-7.119 16.436-10.682 25.764-10.682 9.321 0 18.644 3.563 25.763 10.682l299.905 299.901c0.246 0.234 0.51 0.438 0.751 0.678 7.129 7.13 10.685 16.469 10.674 25.804 0.006 9.337-3.55 18.676-10.674 25.804z" />
<glyph unicode="&#xe62c;" glyph-name="gouwuche" d="M955.424 481.856l-103.339-290.462c-14.41-40.402-52.889-67.575-95.846-67.575h-403.455c-48.41 0-90.356 34.474-99.758 81.935l-68.383 345.937-22.624 103.757h-75.755c-12.063 0-21.816 9.717-21.816 21.74 0 12.065 9.757 21.776 21.816 21.776h93.305c0.682 0 1.267-0.345 1.915-0.39 1.535-0.141 2.963-0.418 4.417-0.876 1.312-0.418 2.506-0.848 3.686-1.502 1.275-0.653 2.347-1.416 3.464-2.3 1.125-0.885 2.078-1.77 3-2.846 0.838-1.040 1.57-2.152 2.214-3.345 0.731-1.294 1.352-2.609 1.807-4.026 0.194-0.654 0.661-1.161 0.811-1.843l22.62-103.834h663.961c23.388 0 45.404-11.373 58.871-30.464 13.547-19.094 16.878-43.643 9.081-65.701v0l0.008 0.019zM910.746 522.422c-5.388 7.647-13.866 12.064-23.264 12.064h-655.007l63.305-320.291c5.376-27.123 29.356-46.797 57.008-46.797h403.459c24.549 0 46.561 15.532 54.79 38.606l103.334 290.461c3.118 8.828 1.843 18.286-3.617 25.961v0l-0.008-0.005zM336.953 76.586c48.482 0 87.896-39.354 87.896-87.759 0-48.41-39.423-87.79-87.896-87.79-48.445 0-87.854 39.388-87.854 87.79 0.001 48.395 39.405 87.759 87.854 87.759v0 0zM336.953-55.434c24.426 0 44.292 19.851 44.292 44.247 0 24.376-19.869 44.201-44.292 44.201-24.4 0-44.247-19.827-44.247-44.201 0-24.413 19.856-44.247 44.247-44.247v0 0zM725.313 76.586c48.458 0 87.862-39.354 87.862-87.759 0-48.41-39.399-87.79-87.862-87.79-48.431 0-87.835 39.388-87.835 87.79 0 48.395 39.414 87.759 87.835 87.759v0 0zM725.313-55.434c24.431 0 44.297 19.851 44.297 44.247 0 24.376-19.875 44.201-44.297 44.201-24.426 0-44.274-19.827-44.274-44.201-0.005-24.413 19.843-44.247 44.274-44.247v0 0zM725.313-55.434" />
<glyph unicode="&#xe62d;" glyph-name="email" d="M864 742.4h-704c-51.2 0-96-44.8-96-96v-524.8c0-51.2 44.8-96 96-96h704c51.2 0 96 44.8 96 96v524.8c0 51.2-44.8 96-96 96zM512 339.2l-345.6 339.2h684.8l-339.2-339.2zM864 89.6h-704c-19.2 0-32 12.8-32 32v505.6l358.4-358.4c6.4-6.4 12.8-6.4 25.6-6.4 6.4 0 19.2 0 25.6 6.4l358.4 364.8v-512c0-19.2-12.8-32-32-32z" />
<glyph unicode="&#xe62e;" glyph-name="naozhong" d="M507.773 329.338c-18.053 0-32.662 14.638-32.662 32.662 0 18.052 14.609 32.66 32.662 32.66 60.217 0 120.434 0 180.59 0 18.052 0 32.662-14.608 32.662-32.66 0-18.023-14.61-32.662-32.662-32.662-60.156 0-120.373 0-180.59 0zM477.121 519.498c0 18.018 14.64 32.661 32.693 32.661 17.988 0 32.66-14.642 32.66-32.661v-156.736c0-18.052-14.672-32.66-32.66-32.66-18.052 0-32.693 15.117-32.693 33.171v156.224zM509.814 786.586c117.12 0 223.267-47.555 300.068-124.36h0.128c76.806-76.801 124.328-182.981 124.328-300.226 0-117.121-47.521-223.268-124.328-300.069l-0.128-0.128c-76.802-76.806-182.948-124.391-300.068-124.391-117.246 0-223.424 47.522-300.261 124.391v0.128c-76.803 76.801-124.358 182.948-124.358 300.069 0 117.244 47.555 223.425 124.358 300.226 76.837 76.835 183.014 124.36 300.261 124.36v0zM763.891 616.106c-65.001 64.968-154.885 105.159-254.078 105.159-99.225 0-189.073-40.22-254.077-105.221-65.001-64.973-105.221-154.822-105.221-254.044 0-99.259 40.22-189.076 105.157-254.078l0.064 0.061c65.003-65.001 154.851-105.251 254.077-105.251 99.193 0 189.076 40.25 254.078 105.19 64.938 65.001 105.124 154.819 105.124 254.078 0 99.222-40.186 189.071-105.189 254.044l0.064 0.062zM228.405 825.467c14 11.352 34.542 9.215 45.929-4.784 11.353-13.973 9.25-34.576-4.753-45.962l-126.72-102.927c-14.001-11.384-34.575-9.249-45.96 4.754-11.356 14.003-8.835 34.893 5.166 46.278l126.338 102.641zM791.191 825.467c-14.031 11.352-34.574 9.215-45.929-4.784-11.418-13.973-9.25-34.576 4.723-45.962l126.75-102.927c13.968-11.384 34.576-9.249 45.929 4.754 11.355 14.003 8.866 34.893-5.167 46.278l-126.306 102.641z" />
<glyph unicode="&#xe62f;" glyph-name="addfile" d="M832 44.8h-640c-51.2 0-89.6 38.4-89.6 89.6v460.8c0 12.8 12.8 25.6 25.6 25.6s25.6-12.8 25.6-25.6v-460.8c0-19.2 19.2-38.4 38.4-38.4h640c12.8 0 19.2 6.4 25.6 12.8s12.8 12.8 12.8 25.6v358.4c0 12.8-6.4 19.2-12.8 25.6-6.4 12.8-12.8 12.8-25.6 12.8h-300.8c-44.8 0-83.2 19.2-108.8 44.8l-64 64c-19.2 19.2-44.8 32-76.8 32h-153.6c-12.8 0-25.6 12.8-25.6 25.6s12.8 25.6 25.6 25.6h153.6c38.4 0 76.8-19.2 108.8-44.8l64-64c25.6-19.2 51.2-32 76.8-32h300.8c25.6 0 44.8-6.4 64-25.6s25.6-38.4 25.6-64v-358.4c0-25.6-6.4-44.8-25.6-64s-38.4-25.6-64-25.6zM537.6 294.4v-60.8c0 0 0 0 0 0 0-14.138-11.462-25.6-25.6-25.6s-25.6 11.462-25.6 25.6c0 0 0 0 0 0v60.8h-60.8c0 0 0 0 0 0-14.138 0-25.6 11.462-25.6 25.6s11.462 25.6 25.6 25.6c0 0 0 0 0 0h60.8v60.8c0 0 0 0 0 0 0 14.138 11.462 25.6 25.6 25.6s25.6-11.462 25.6-25.6c0 0 0 0 0 0v-60.8h60.8c0 0 0 0 0 0 14.138 0 25.6-11.462 25.6-25.6s-11.462-25.6-25.6-25.6c0 0 0 0 0 0h-60.8z" />
<glyph unicode="&#xe633;" glyph-name="yejianmoshi" d="M557.25-63.028c-247.491 0-448.826 199.306-448.826 446.784 0 244.285 198.731 446.636 443.003 446.636 0.12 0 0.226 0 0.347 0 10.355 0 19.841-3.808 24.477-13.094 4.689-9.38 3.594-19.614-2.806-27.924-53.605-69.477-81.929-152.101-81.929-239.896 0-217.308 176.793-393.826 394.101-393.826l5.051 0.239c9.927 0.134 20.176-5.638 24.864-15.044 4.704-9.38 3.621-20.603-2.805-28.915-85.78-111.203-215.354-174.962-355.477-174.962zM497.341 775.211c-188.636-29.113-334.191-193.506-334.191-389.411 0-217.295 176.793-394.101 394.101-394.101 104.55 0 202.412 40.456 275.696 112.54-222.773 26.16-396.158 216.079-396.158 445.747-0.001 80.259 20.789 157.097 60.552 225.225zM577.719 30.499c-179.758 0-332.64 128.359-363.491 305.211-1.297 7.441 3.688 14.536 11.129 15.834 7.549 1.269 14.537-3.688 15.833-11.131 28.552-163.705 170.092-282.537 336.529-282.537 7.563 0 13.683-6.119 13.683-13.682 0-7.577-6.12-13.696-13.683-13.696zM222.887 365.211c-7.255 0-13.307 6.734-13.655 14.055-0.307 6.333-0.468 13.267-0.468 19.695 0 7.562 6.118 13.935 13.682 13.935s13.682-5.999 13.682-13.561c0-5.999 0.161-12.92 0.441-18.839 0.361-7.549-5.464-15.285-13.013-15.285-0.228 0-0.442 0-0.668 0zM642.681 585.859c4.301-12.746-2.566-26.588-15.312-30.891-12.747-4.289-26.589 2.565-30.892 15.325-4.275 12.746 2.565 26.575 15.312 30.877 12.774 4.303 26.589-2.565 30.892-15.312zM801.147 702.902c4.275-12.746-2.565-26.589-15.337-30.891-12.747-4.275-26.562 2.565-30.865 15.325-4.301 12.746 2.566 26.574 15.312 30.877s26.589-2.565 30.891-15.312zM748.131 484.497c4.302-12.76-2.565-26.589-15.312-30.891-12.746-4.289-26.588 2.565-30.892 15.312-4.301 12.746 2.566 26.588 15.312 30.891s26.59-2.565 30.892-15.312z" />
<glyph unicode="&#xe63d;" glyph-name="caidan" d="M896 768h-768c-17.7 0-32-14.3-32-32s14.3-32 32-32h768c17.7 0 32 14.3 32 32s-14.3 32-32 32zM896 416h-768c-17.7 0-32-14.3-32-32s14.3-32 32-32h768c17.7 0 32 14.3 32 32s-14.3 32-32 32zM896 64h-768c-17.7 0-32-14.3-32-32s14.3-32 32-32h768c17.7 0 32 14.3 32 32s-14.3 32-32 32z" />
<glyph unicode="&#xe63e;" glyph-name="saoyisao1" d="M64.178 544.39v241.34c0 0-0.847 45.385 48.353 47.504 49.202 0 240.915 0 240.915 0v-53.443l-210.801 0.424c0 0-23.327-3.393-25.449-22.904 0-20.783-0.425-212.921-0.425-212.921h-52.594zM668.8 833.448h241.34c0 0 45.385 0.847 47.505-48.354 0-49.202 0-240.916 0-240.916h-53.443l0.424 210.801c0 0-3.393 23.329-22.904 25.45-20.784 0-212.921 0.425-212.921 0.425v52.595zM64.178 228.826v-241.34c0 0-0.847-45.385 48.353-47.504 49.202 0 240.915 0 240.915 0v53.443l-210.801-0.425c0 0-23.327 3.394-25.449 22.904 0 20.784-0.425 212.921-0.425 212.921h-52.594zM668.8-60.231h241.34c0 0 45.385-0.847 47.505 48.354 0 49.202 0 240.916 0 240.916h-53.443l0.424-210.801c0 0-3.393-23.328-22.904-25.449-20.784 0-212.921-0.425-212.921-0.425v-52.596zM64.178 414.177h893.466v-54.715h-893.466v54.715z" />
<glyph unicode="&#xe63f;" glyph-name="shipin" d="M716.8 539.2v75.2c0 70.6-57.4 128-128 128h-460.8c-70.6 0-128-57.4-128-128v-460.8c0-70.6 57.4-128 128-128h460.8c70.6 0 128 57.4 128 128v75.2l307.2-111.8v534l-307.2-111.8zM665.6 153.6c0-42.4-34.4-76.8-76.8-76.8h-460.8c-42.3 0-76.8 34.5-76.8 76.8v460.8c0 42.3 34.5 76.8 76.8 76.8h460.8c42.4 0 76.8-34.5 76.8-76.8v-460.8zM972.8 190.2l-256 93.1v201.5l256 93.1v-387.7z" />
<glyph unicode="&#xe640;" glyph-name="duoxuan" d="M430.899 403.866c-0.007 0-0.016 0-0.024 0-9.435 0-17.922 4.057-23.812 10.522l-0.023 0.026-145.92 160c-5.159 5.696-8.316 13.288-8.316 21.618 0 17.814 14.442 32.256 32.256 32.256 9.374 0 17.814-3.999 23.707-10.383l125.511-137.596 341.504 275.149c5.361 4.119 12.166 6.601 19.551 6.601 17.814 0 32.256-14.442 32.256-32.256 0-9.822-4.39-18.618-11.315-24.535l-0.045-0.037-365.107-294.195c-5.473-4.461-12.532-7.165-20.223-7.168h-0.001zM802.509-16.742h-424.499c-18.521 0-33.536 15.015-33.536 33.536s15.015 33.536 33.536 33.536v0h424.499c24.222 0.029 43.849 19.657 43.878 43.876v326.454c0 18.521 15.015 33.536 33.536 33.536s33.536-15.015 33.536-33.536v0-326.451c-0.087-61.241-49.709-110.863-110.942-110.95h-0.008zM615.424 170.342h-383.232c-61.241 0.087-110.863 49.709-110.95 110.942v383.24c0.087 61.241 49.709 110.863 110.942 110.95h269.576c18.536 0 33.562-15.026 33.562-33.562s-15.026-33.562-33.562-33.562v0h-269.568c-24.222-0.029-43.849-19.657-43.878-43.876v-383.235c0.029-24.222 19.657-43.849 43.876-43.878h383.235c24.222 0.029 43.849 19.657 43.878 43.876v139.421c0 18.536 15.026 33.562 33.562 33.562s33.562-15.026 33.562-33.562v0-139.366c-0.087-61.259-49.739-110.892-110.996-110.95h-0.005z" />
<glyph unicode="&#xe642;" glyph-name="icon-music" d="M254.771 243.302c-90.522 0-163.84-64.102-163.84-143.36s73.318-143.36 163.84-143.36 163.84 64.102 163.84 143.36-73.318 143.36-163.84 143.36zM254.771-2.458c-67.789 0-122.88 45.875-122.88 102.4s55.091 102.4 122.88 102.4 122.88-45.875 122.88-102.4-55.091-102.4-122.88-102.4zM766.771 366.182c-90.522 0-163.84-64.102-163.84-143.36s73.318-143.36 163.84-143.36 163.84 64.102 163.84 143.36-73.318 143.36-163.84 143.36zM766.771 120.422c-67.789 0-122.88 45.875-122.88 102.4s55.091 102.4 122.88 102.4 122.88-45.875 122.88-102.4-55.091-102.4-122.88-102.4zM398.131 673.382c11.311 0 20.48-9.169 20.48-20.48v0-532.48c0-11.311-9.169-20.48-20.48-20.48s-20.48 9.169-20.48 20.48v0 532.48c0 11.311 9.169 20.48 20.48 20.48v0zM912.589 811.008c11.311 0 20.48-9.169 20.48-20.48v0-573.44c0-11.311-9.169-20.48-20.48-20.48s-20.48 9.169-20.48 20.48v0 573.44c0 11.311 9.169 20.48 20.48 20.48v0zM392.806 672.768l514.253 137.83c1.396 0.339 2.999 0.534 4.647 0.534 11.311 0 20.48-9.169 20.48-20.48 0-9.169-6.025-16.93-14.332-19.541l-514.398-137.869c-1.396-0.339-2.999-0.534-4.647-0.534-11.311 0-20.48 9.169-20.48 20.48 0 9.169 6.025 16.93 14.332 19.541l0.145 0.039zM500.531 496.845l-107.725-28.877c-8.452-2.65-14.477-10.412-14.477-19.581 0-11.311 9.169-20.48 20.48-20.48 1.648 0 3.251 0.195 4.786 0.562l-0.139-0.028 97.075 26.010zM932.25 591.462c-2.407 8.828-10.353 15.211-19.791 15.211-1.847 0-3.636-0.244-5.338-0.703l0.143 0.033-365.773-99.123v-40.96l376.218 100.352c8.854 2.389 15.262 10.348 15.262 19.804 0 1.916-0.263 3.771-0.755 5.53l0.034-0.144z" />
<glyph unicode="&#xe643;" glyph-name="jiarugedan" d="M512-128h-435.2c-42.496 0-76.8 34.304-76.8 76.8v870.4c0 42.496 34.304 76.8 76.8 76.8h665.6c42.496 0 76.8-34.304 76.8-76.8v-414.72c0-14.336-11.264-25.6-25.6-25.6s-25.6 11.264-25.6 25.6v414.72c0 14.336-11.264 25.6-25.6 25.6h-665.6c-14.336 0-25.6-11.264-25.6-25.6v-870.4c0-14.336 11.264-25.6 25.6-25.6h435.2c14.336 0 25.6-11.264 25.6-25.6s-11.776-25.6-25.6-25.6zM998.4 128h-179.2v179.2c0 14.336-11.264 25.6-25.6 25.6s-25.6-11.264-25.6-25.6v-179.2h-179.2c-14.336 0-25.6-11.264-25.6-25.6s11.264-25.6 25.6-25.6h179.2v-179.2c0-14.336 11.264-25.6 25.6-25.6s25.6 11.264 25.6 25.6v179.2h179.2c14.336 0 25.6 11.264 25.6 25.6s-11.264 25.6-25.6 25.6zM648.704 623.104h-478.208c-12.288 0-21.504 11.264-21.504 25.6s9.728 25.6 21.504 25.6h478.72c12.288 0 21.504-11.264 21.504-25.6s-9.728-25.6-22.016-25.6zM409.6 423.424h-239.104c-12.288 0-21.504 11.264-21.504 25.6s9.728 25.6 21.504 25.6h239.104c12.288 0 21.504-11.264 21.504-25.6s-9.216-25.6-21.504-25.6zM561.152 223.744h-390.656c-12.288 0-21.504 11.264-21.504 25.6s9.728 25.6 21.504 25.6h390.144c12.288 0 21.504-11.264 21.504-25.6s-9.216-25.6-20.992-25.6z" />
<glyph unicode="&#xe647;" glyph-name="play" d="M512 855.040c-260.148 0-471.040-210.892-471.040-471.040s210.892-471.040 471.040-471.040c260.148 0 471.040 210.892 471.040 471.040v0c0 260.148-210.892 471.040-471.040 471.040v0zM512-46.080c-237.527 0-430.080 192.553-430.080 430.080s192.553 430.080 430.080 430.080c237.527 0 430.080-192.553 430.080-430.080v0c0-237.527-192.553-430.080-430.080-430.080v0zM555.827 331.366l-105.267-70.246v245.76l184.32-122.88-42.598-28.467 32.154-22.938 71.885 51.405-286.72 204.8v-409.6l179.61 128.41-33.382 23.757z" />
<glyph unicode="&#xe648;" glyph-name="fenxiang" d="M736 832c-92.8 0-168-75.2-168-168 0-22.7 4.6-44.3 12.8-64l-167.7-104.8c-30.8 34.6-75.2 56.8-125.1 56.8-92.8 0-168-75.2-168-168s75.2-168 168-168c49.9 0 94.3 22.2 125.1 56.8l167.7-104.8c-8.2-19.7-12.8-41.3-12.8-64 0-92.8 75.2-168 168-168s168 75.2 168 168-75.2 168-168 168c-49.9 0-94.3-22.2-125.1-56.8l-167.7 104.8c8.2 19.7 12.8 41.3 12.8 64s-4.6 44.3-12.8 64l167.7 104.8c30.8-34.6 75.2-56.8 125.1-56.8 92.8 0 168 75.2 168 168s-75.2 168-168 168zM736 552c-61.8 0-112 50.2-112 112s50.2 112 112 112 112-50.2 112-112-50.2-112-112-112zM288 272c-61.8 0-112 50.2-112 112s50.2 112 112 112 112-50.2 112-112-50.2-112-112-112zM736-8c-61.8 0-112 50.2-112 112s50.2 112 112 112 112-50.2 112-112-50.2-112-112-112z" />
<glyph unicode="&#xe64a;" glyph-name="icon-2" d="M747.52 586.547c-135.73 0-245.76-110.030-245.76-245.76v0-14.746c-15.77-38.912-17.408-56.73-29.286-68.198-47.146-96.762-144.575-162.356-257.372-162.816h-20.542v40.96h20.48c115.962 0.1 213.117 80.498 238.87 188.588l0.336 1.672c2.458 3.686 4.506 7.578 6.758 11.264s0 2.048 0 3.277c0 158.351 128.369 286.72 286.72 286.72v0h61.44v-40.96zM794.419 174.49l-87.040-86.221c-3.62-3.691-5.854-8.753-5.854-14.336s2.234-10.645 5.858-14.339l-0.003 0.003c3.712-3.742 8.856-6.058 14.541-6.058s10.829 2.316 14.539 6.057l0.001 0.001 87.040 86.221c3.62 3.691 5.854 8.753 5.854 14.336s-2.234 10.645-5.858 14.339l0.003-0.003c-3.712 3.742-8.856 6.058-14.541 6.058s-10.829-2.316-14.539-6.057l-0.001-0.001zM792.576 592.486l-86.835 86.835c-4.393 3.779-7.159 9.344-7.159 15.555 0 11.311 9.169 20.48 20.48 20.48 6.211 0 11.777-2.765 15.533-7.132l0.023-0.027 86.835-86.835c3.061-3.558 4.925-8.222 4.925-13.321 0-11.311-9.169-20.48-20.48-20.48-5.099 0-9.764 1.864-13.348 4.947l0.027-0.023zM749.158 180.429c-0.183 0-0.4-0.001-0.617-0.001-135.298 0-245.060 109.332-245.757 244.465v14.813c-15.77 38.502-17.613 56.32-29.286 67.789-38.71 78.418-110.013 135.73-195.728 154.68l-1.904 0.353v-40.96c88.728-22.984 157.004-92.079 178.442-179.564l0.349-1.684c2.458-3.686 4.506-7.578 6.758-11.264s0-2.048 0-3.072c1.161-157.468 129.082-284.672 286.713-284.672 0.003 0 0.005 0 0.008 0h61.439v40.96zM235.52 667.648h-40.96v-40.96h40.96z" />
<glyph unicode="&#xe64b;" glyph-name="xiaoxi" d="M970.914 737.103c-9.672 0-17.535 7.865-17.535 17.5v-599.966c0 9.559 7.825 17.5 17.779 17.5h-578.331c-7.089 0-14.013-2.133-19.872-6.123l-207.448-141.241 55.183-29.187v141.241c0 19.501-15.809 35.31-35.31 35.31h-132.265c9.643 0 17.506-7.853 17.506-17.5v599.966c0-9.648-7.836-17.5-17.535-17.5h917.829zM0 754.604v-599.966c0-29.376 23.776-53.12 53.115-53.12h132.265l-35.31 35.31v-141.241c0-28.358 31.742-45.147 55.183-29.187l207.448 141.241-19.872-6.123h578.331c29.283 0 52.841 23.908 52.841 53.12v599.966c0 29.363-23.75 53.12-53.086 53.12h-917.829c-29.336 0-53.086-23.798-53.086-53.12zM741.548 507.586c19.501 0 35.31 15.809 35.31 35.31s-15.809 35.31-35.31 35.31h-476.72c-19.501 0-35.31-15.809-35.31-35.31s15.809-35.31 35.31-35.31h476.72zM264.828 401.655c-19.501 0-35.31-15.809-35.31-35.31s15.809-35.31 35.31-35.31h476.72c19.501 0 35.31 15.809 35.31 35.31s-15.809 35.31-35.31 35.31h-476.72z" />
<glyph unicode="&#xe64c;" glyph-name="guanbi" d="M557.3 384l329.4 329.4c12.5 12.5 12.5 32.8 0 45.3-6.2 6.2-14.4 9.4-22.6 9.4s-16.4-3.1-22.6-9.4l-329.5-329.4-329.4 329.3c-6.3 6.2-14.4 9.4-22.6 9.4s-16.4-3.1-22.6-9.4c-12.5-12.5-12.5-32.8 0-45.3l329.3-329.3-329.3-329.4c-12.5-12.5-12.5-32.8 0-45.3 6.2-6.2 14.4-9.4 22.6-9.4s16.4 3.1 22.6 9.4l329.4 329.4 329.4-329.4c6.2-6.2 14.4-9.4 22.6-9.4s16.4 3.1 22.6 9.4c12.5 12.5 12.5 32.8 0 45.3l-329.3 329.4z" />
<glyph unicode="&#xe64d;" glyph-name="xiaolaba" d="M525.541 764.497l-230.495-148.031h-114.989c-63.895 0-115.68-51.15-115.68-115.219v-230.899c0-63.665 51.151-115.219 115.68-115.219h114.989l230.495-147.916c32.582-14.129 57.84 0.98 57.84 33.044v691.198c0 32.121-25.893 46.825-57.84 33.043zM719.765 578.463c-10.842 11.649-29.122 12.284-40.712 1.385-11.649-10.899-12.226-29.122-1.385-40.771 5.363-5.766 14.532-18.512 23.989-37.772 16.147-32.871 25.893-71.449 25.893-115.508s-9.746-82.694-25.893-115.508c-9.457-19.26-18.626-32.005-23.989-37.772-10.899-11.648-10.265-29.871 1.385-40.771 11.648-10.899 29.871-10.265 40.771 1.385 9.054 9.688 21.51 26.988 33.621 51.727 19.895 40.483 31.775 87.654 31.775 140.996s-11.88 100.514-31.775 140.996c-12.169 24.625-24.626 41.983-33.679 51.612zM896.572 614.159c-23.298 39.444-46.825 66.779-63.318 81.484-11.881 10.61-30.103 9.572-40.714-2.365-10.61-11.937-9.573-30.102 2.365-40.712 2.71-2.421 8.131-7.843 15.397-16.261 12.456-14.416 24.911-31.602 36.619-51.44 33.504-56.86 53.63-123.349 53.63-199.067s-20.126-142.207-53.688-199.125c-11.707-19.837-24.221-37.022-36.619-51.439-7.265-8.419-12.687-13.84-15.398-16.261-11.88-10.611-12.916-28.834-2.364-40.714s28.834-12.916 40.713-2.364c16.494 14.705 40.022 41.982 63.319 81.484 38.522 65.336 61.646 141.745 61.646 228.419 0.058 86.615-23.066 163.024-61.589 228.361z" />
<glyph unicode="&#xe650;" glyph-name="wangyiyunyinyuemusic1193417easyiconnet" d="M604.713 832.089c-53.548-19.668-95.068-77.039-95.068-132.222 0-16.391 3.823-43.165 8.742-59.556 4.912-16.391 7.646-30.597 6.557-31.143-0.546-1.092-18.033-9.288-38.793-18.575-72.67-33.331-124.576-101.079-134.956-176.48-18.029-126.761 60.102-230.574 173.203-230.574 72.666 0 134.953 43.165 160.631 110.367 16.94 45.896 11.479 104.905-20.214 204.892-8.192 25.679 54.641-9.288 95.618-54.091 50.268-54.637 68.297-135.503 46.988-214.18-19.125-69.39-77.036-136.598-146.429-168.284-184.675-84.692-385.737 11.472-440.921 210.9-20.763 74.854-13.66 145.336 22.402 222.921 27.863 60.102 86.327 120.204 146.975 150.255 48.626 24.040 58.464 32.236 62.833 52.453 3.826 18.575-8.742 45.896-25.679 55.183-36.062 19.671-118.019-21.309-192.87-96.16-68.844-68.844-101.625-128.399-119.658-216.914-38.793-187.948 57.917-387.922 227.84-470.429 61.74-30.597 112.551-42.066 182.49-42.066 154.078 0 289.577 78.674 355.69 206.527 32.782 62.833 40.977 100.533 37.7 175.933-2.734 72.124-10.926 102.721-40.98 152.439-49.719 82.504-134.407 142.060-216.364 152.986l-27.317 3.28-9.841 32.782c-13.653 45.35-12.564 60.102 4.372 73.213 18.029 14.206 37.7 14.752 62.287 1.092 46.442-26.225 54.641-28.409 73.216-22.398 19.125 6.007 36.055 30.048 36.055 51.357 0 19.671-26.767 48.080-63.925 66.113-38.789 19.121-95.614 23.494-130.584 10.38zM574.659 435.968c19.128-71.031 20.767-91.245 9.291-113.647-18.575-34.966-72.666-46.988-99.441-21.852-22.402 20.76-29.501 39.885-29.501 78.677 0 40.434 10.926 67.205 36.605 90.699 18.579 17.483 57.917 38.246 62.29 33.328 1.638-2.188 10.926-32.239 20.756-67.205z" />
<glyph unicode="&#xe652;" glyph-name="caidan1" d="M922.686 201.053l-0.005-0.002-0.108-0.013v552.178c0 40.405-32.873 73.278-73.278 73.278h-673.186c-40.405 0-73.278-32.873-73.278-73.278v-736.002c0-40.406 32.873-73.278 73.278-73.278l498.722-0.099 247.856 257.216zM672.701 33.86l-0.55 126.795c1.086 26.399 16.202 43.416 38.646 43.416 0.82 0 1.656-0.024 2.486-0.071l124.031-0.733-164.613-169.407zM176.108 6.746c-5.772 0-10.468 4.696-10.468 10.468v736.002c0 5.772 4.696 10.468 10.468 10.468h673.186c5.772 0 10.468-4.696 10.468-10.468v-488.482l-143.645 2.014c-1.773 0.088-3.559 0.133-5.32 0.133-56.815 0-99.48-44.089-101.446-104.835l-0.023-0.702 1.919-154.597h-435.139zM312.181 561.293l384.688 1.047c10.406 0 28.264 14.060 28.264 31.405s-17.858 31.405-28.264 31.405l-384.688-1.047c-10.406 0-28.264-13.013-28.264-30.358s17.858-32.452 28.264-32.452zM312.181 397.996l384.688 1.047c10.406 0 28.264 14.060 28.264 31.405s-17.858 31.405-28.264 31.405l-384.688-1.047c-10.406 0-28.264-13.013-28.264-30.358s17.858-32.452 28.264-32.452zM527.292 289.134h-216.682c-14.742 0-26.693-14.060-26.693-31.405s11.951-31.405 26.693-31.405h216.682c14.742 0 26.693 14.060 26.693 31.405s-11.95 31.405-26.693 31.405z" />
<glyph unicode="&#xe655;" glyph-name="fenxiang1" d="M256 256c0 0 57.6 192 384 192v-192l384 256-384 256v-192c-256 0-384-160-384-320zM704 128h-576v384h128c12.8 12.8 19.2 25.6 32 32 44.8 44.8 96 70.4 153.6 96h-441.6v-640h832v268.8l-128-83.2v-57.6z" />
<glyph unicode="&#xe65b;" glyph-name="fujin" d="M480.070 183.416c4.401-4.912 10.643-7.471 16.784-7.471 0.307 0 0.614 0 0.921 0s0.614 0 0.921 0c6.14 0 12.281 2.558 16.784 7.471l171.622 191.476c80.643 86.885 54.649 207.133 53.523 212.25l-0.307 1.126c-29.167 104.897-98.143 149.721-150.847 168.961-27.222 9.927-52.704 14.020-72.149 15.658-1.023 0.205-2.149 0.409-3.172 0.512-0.716 0.102-6.652 0.512-16.272 0.409-9.62 0.102-15.555-0.409-16.272-0.409-1.126-0.102-2.149-0.307-3.172-0.512-19.444-1.637-45.029-5.833-72.149-15.658-52.704-19.24-121.681-64.064-150.847-168.961l-0.307-1.126c-1.126-5.117-27.222-125.467 53.523-212.25l171.417-191.476zM298.829 576.806c19.24 68.465 59.97 114.722 121.169 137.441 32.953 12.281 63.655 14.327 79.21 14.532 15.965-0.307 44.108-2.763 74.707-13.918 62.017-22.617 103.26-68.976 122.704-138.055 0.716-3.684 5.424-28.552 2.865-60.687-3.582-44.824-18.933-82.076-45.643-110.73l-0.102-0.205-155.964-173.976-156.271 174.18c-26.71 28.655-42.061 65.906-45.643 110.73-2.456 32.237 2.251 57.207 2.968 60.687zM497.877 433.941c51.374 0 93.128 41.754 93.128 93.128s-41.754 93.128-93.128 93.128-93.128-41.754-93.128-93.128 41.754-93.128 93.128-93.128zM497.877 575.168c26.506 0 48.099-21.593 48.099-48.099s-21.593-48.099-48.099-48.099-48.099 21.593-48.099 48.099 21.593 48.099 48.099 48.099zM791.077 189.966l-0.512 0.409c-35.819 33.362-99.78 50.658-119.429 56.286-11.974 3.377-24.459-3.48-27.836-15.453s3.48-24.459 15.453-27.836c17.295-5.015 73.274-20.365 100.906-45.745 7.88-7.88 14.532-19.649 11.769-28.45-3.787-12.281-25.994-26.506-59.561-32.851h-0.102c-0.102 0-15.658-2.968-45.643-6.038-27.836-2.865-86.067-6.243-148.186-6.754-4.401 0-9.722 0-15.351 0-24.050 0-56.9 0.102-60.789 0.205-44.21 0.716-84.839 2.968-120.862 6.652-29.985 3.070-45.438 6.038-45.541 6.038h-0.102c-33.567 6.345-55.775 20.57-59.561 32.851-2.661 8.903 3.991 20.672 11.769 28.45 27.529 25.482 83.611 40.833 100.906 45.745 11.974 3.377 18.83 15.862 15.453 27.836s-15.862 18.83-27.836 15.453c-19.547-5.629-83.508-23.026-119.429-56.286l-0.512-0.409c-17.091-16.886-32.237-45.131-23.538-73.888 9.21-30.292 40.935-53.83 94.152-63.962 1.637-0.307 18.216-3.48 49.634-6.652 37.251-3.787 79.21-6.14 124.648-6.857 3.889-0.102 30.088-0.102 61.403-0.205 3.582 0 6.959 0 10.029 0 0.409 0 0.921 0 1.33 0 0 0 0.102 0 0.102 0 1.33 0 2.763 0 4.094 0 6.55 0 11.257 0 12.69 0 0 0 0.102 0 0.102 0 1.126 0 2.149 0.102 3.275 0.205 55.877 0.921 110.116 4.196 136.417 6.857 31.418 3.172 48.099 6.345 49.634 6.652 53.216 10.029 84.941 33.669 94.152 63.962 9.21 28.655-6.038 56.9-23.129 73.786z" />
<glyph unicode="&#xe65c;" glyph-name="shezhi" d="M64 421.3c1.2 10 5.1 19.9 11.9 28.4s15.5 14.5 25.1 17.8l86.3 30.7c4.2 11.7 8.9 23.3 14.4 34.6l-39.3 82.8c-4.3 9.1-6.3 19.5-5.1 30.2s5.3 20.5 11.5 28.4l52.9 52.9c8 6.2 17.7 10.4 28.4 11.5s21.1-0.8 30.2-5.1l82.8-39.3c11.4 5.4 22.9 10.2 34.7 14.4l30.7 86.3c3.4 9.5 9.4 18.3 17.8 25.1 8.5 6.8 18.3 10.7 28.4 11.9h74.4c10-1.2 19.9-5.1 28.4-11.9s14.5-15.5 17.8-25.1l30.7-86.3c11.7-4.2 23.3-8.9 34.7-14.4l82.8 39.3c9.1 4.3 19.5 6.3 30.2 5.1 10.8-1.2 20.5-5.3 28.4-11.5l52.9-52.9c6.2-8 10.4-17.7 11.5-28.4s-0.8-21.1-5.1-30.2l-39.3-82.8c5.4-11.3 10.2-22.9 14.4-34.6l86.3-30.7c9.5-3.4 18.3-9.4 25.1-17.8s10.7-18.3 11.9-28.4v-74.5c-1.2-10-5.1-19.9-11.9-28.4s-15.5-14.5-25.1-17.8l-86.3-30.7c-4.2-11.7-8.9-23.3-14.4-34.7l39.3-82.8c4.3-9.1 6.3-19.5 5.1-30.2-1.2-10.8-5.3-20.5-11.5-28.4l-52.9-52.9c-8-6.2-17.7-10.4-28.4-11.5-10.8-1.2-21.1 0.8-30.2 5.1l-82.8 39.3c-11.4-5.4-22.9-10.2-34.7-14.4l-30.6-86.4c-3.4-9.5-9.4-18.3-17.8-25.1-8.5-6.8-18.3-10.7-28.4-11.9h-74.4c-10 1.2-19.9 5.1-28.4 11.9s-14.5 15.5-17.8 25.1l-30.7 86.3c-11.7 4.2-23.3 8.9-34.7 14.4l-82.8-39.3c-9.1-4.3-19.5-6.3-30.2-5.1s-20.5 5.3-28.4 11.5l-52.9 52.9c-6.2 8-10.4 17.7-11.5 28.4-1.2 10.8 0.8 21.1 5.1 30.2l39.3 82.8c-5.4 11.4-10.2 22.9-14.4 34.7l-86.4 30.8c-9.5 3.4-18.3 9.4-25.1 17.8-6.8 8.5-10.7 18.3-11.9 28.4v74.5zM120.1 414.7c-1.8-20.3-1.8-41.1 0-61.3l112.3-39.9 4.2-13.5c5.3-17.6 12.5-34.7 21.2-51.2l6.6-12.5-51.1-107.6c13.3-15.5 27.8-30.1 43.4-43.4l107.6 51.1 12.5-6.6c16.5-8.7 33.6-15.9 51.2-21.2l13.5-4.2 39.9-112.3c10.1-0.9 20.3-1.4 30.6-1.4s20.5 0.5 30.6 1.4l39.9 112.3 13.5 4.2c17.6 5.3 34.7 12.5 51.2 21.2l12.5 6.6 107.6-51.1c15.5 13.3 30.1 27.8 43.4 43.4l-51.1 107.6 6.6 12.5c8.7 16.5 15.9 33.6 21.2 51.2l4.2 13.5 112.3 39.9c1.8 20.2 1.8 41 0 61.3l-112.3 39.9-4.2 13.5c-5.3 17.5-12.5 34.7-21.2 51.1l-6.6 12.5 51.1 107.6c-13.3 15.5-27.8 30.1-43.4 43.4l-107.6-51.1-12.5 6.6c-16.5 8.7-33.6 15.9-51.2 21.2l-13.5 4.2-39.9 112.3c-10.1 0.9-20.3 1.4-30.6 1.4s-20.5-0.5-30.6-1.4l-39.9-112.3-13.5-4.2c-17.6-5.3-34.7-12.5-51.2-21.2l-12.5-6.6-107.6 51.1c-15.5-13.3-30.1-27.8-43.4-43.4l51.1-107.6-6.6-12.5c-8.7-16.4-15.9-33.6-21.2-51.1l-4.2-13.5-112.3-39.9zM512 510c69.5 0 126-56.5 126-126s-56.5-126-126-126-126 56.5-126 126 56.5 126 126 126M512 566c-100.5 0-182-81.5-182-182s81.5-182 182-182 182 81.5 182 182-81.5 182-182 182z" />
<glyph unicode="&#xe669;" glyph-name="zuanshi" d="M948.334 552.782l-119.884 209.594c-13.351 23.228-42.385 40.105-69.141 40.105h-495.168c-26.81 0-55.953-16.823-69.249-39.997l-119.071-206.5c-13.948-24.204-11.397-58.992 6.024-81.080l387.332-489.035c3.365-4.124 7.761-6.674 11.939-9.659l1.194-3.8 2.496 0.815c7.869-4.613 16.39-7.707 25.508-7.707 9.226 0 17.801 3.202 25.778 7.978l2.116-0.651 0.976 3.147c4.233 2.931 8.738 5.536 12.157 9.77l390.642 485.996c17.476 21.87 20.19 56.657 6.351 81.024zM871.975 568.413h-144.685l63.551 141.755 81.134-141.755zM584.828 743.979h157.006l-60.077-133.995-96.929 133.995zM512.594 743.979l126.994-175.566h-257.191l126.994 175.566h3.202zM340.228 609.984l-60.132 133.995h157.059l-96.928-133.995zM639.75 509.909l-130.304-430.314-137.686 430.314h267.99zM231.633 708.973l63.062-140.56h-144.197l81.135 140.56zM128.79 509.909h181.536l123.032-384.509-304.568 384.509zM582.006 117.367l118.907 392.541h195.81c-0.217-0.435-0.163-1.194-0.434-1.52l-314.283-391.022z" />
<glyph unicode="&#xe66c;" glyph-name="qingkongshanchu" d="M694.857 749.714v73.143c0 40.393-32.75 73.143-73.143 73.143h-219.429c-40.393 0-73.143-32.75-73.143-73.143v-73.143h-292.571v-73.143h109.714v-731.429c0-40.393 32.75-73.143 73.143-73.143h585.143c40.393 0 73.143 32.75 73.143 73.143v731.429h109.714v73.143h-292.571zM402.286 822.857h219.429v-73.143h-219.429v73.143zM804.571-54.857h-585.143v731.429h585.143v-731.429zM329.143 566.857h73.143v-512h-73.143v512zM475.429 566.857h73.143v-512h-73.143v512zM621.714 566.857h73.143v-512h-73.143v512z" />
<glyph unicode="&#xe66d;" glyph-name="xunhuanbofang" d="M694.4 41.6h-499.2l48-44.8c9.6-6.4 16-16 16-28.8-3.2-19.2-19.2-32-38.4-32-9.6 0-22.4 6.4-28.8 12.8l-108.8 96c-12.8 12.8-16 35.2 0 48l108.8 99.2c6.4 6.4 19.2 9.6 28.8 9.6 19.2 0 35.2-16 35.2-35.2 0-9.6-6.4-19.2-12.8-25.6l-41.6-38.4h496c112 0 198.4 89.6 198.4 198.4v86.4c0 19.2 12.8 32 32 32s32-12.8 32-32v-86.4c0-140.8-118.4-259.2-265.6-259.2zM329.6 726.4h496l-48 44.8c-9.6 6.4-16 16-16 28.8 3.2 19.2 19.2 32 38.4 32 9.6 0 22.4-6.4 28.8-12.8l108.8-96c12.8-12.8 16-35.2 0-48l-105.6-99.2c-6.4-6.4-19.2-9.6-28.8-9.6-19.2 0-35.2 16-35.2 35.2 0 9.6 6.4 19.2 12.8 25.6l41.6 38.4h-496c-108.8-3.2-198.4-92.8-198.4-204.8v-89.6c0-19.2-12.8-32-32-32s-32 12.8-32 32v86.4c0 150.4 118.4 268.8 265.6 268.8z" />
<glyph unicode="&#xe66e;" glyph-name="danquxunhuan" d="M928 419.2c-19.2 0-32-12.8-32-32v-86.4c0-108.8-86.4-198.4-198.4-198.4h-496l41.6 38.4c6.4 6.4 12.8 16 12.8 25.6 0 19.2-16 35.2-35.2 35.2-9.6 0-22.4-3.2-28.8-9.6l-108.8-99.2c-16-12.8-12.8-35.2 0-48l108.8-96c6.4-6.4 19.2-12.8 28.8-12.8 19.2 0 35.2 12.8 38.4 32 0 12.8-6.4 22.4-16 28.8l-48 44.8h499.2c147.2 0 265.6 118.4 265.6 259.2v86.4c0 19.2-12.8 32-32 32zM96 339.2c19.2 0 32 12.8 32 32v89.6c0 112 89.6 201.6 198.4 204.8h496l-41.6-38.4c-6.4-6.4-12.8-16-12.8-25.6 0-19.2 16-35.2 35.2-35.2 9.6 0 22.4 3.2 28.8 9.6l105.6 99.2c16 12.8 12.8 35.2 0 48l-108.8 96c-6.4 6.4-19.2 12.8-28.8 12.8-19.2 0-35.2-12.8-38.4-32 0-12.8 6.4-22.4 16-28.8l48-44.8h-496c-147.2 0-265.6-118.4-265.6-268.8v-86.4c0-19.2 12.8-32 32-32zM544 224v320h-48l-80-57.6 16-41.6 60.8 41.6v-262.4z" />
<glyph unicode="&#xe673;" glyph-name="date-empty" d="M863.788 743.431h-40.425v12.006c0 36.003-29.32 65.436-65.147 65.436h-0.96c-35.83 0-65.146-29.434-65.146-65.436v-12.006h-360.281v12.006c0 36.003-29.313 65.436-65.143 65.436h-0.992c-35.831 0-65.148-29.434-65.148-65.436v-12.006h-40.334c-35.831 0-65.148-29.463-65.148-65.414v-625.572c0-36.004 29.316-65.436 65.148-65.436h703.573c35.828 0 65.144 29.433 65.144 65.436v625.571c0 35.952-29.316 65.415-65.144 65.415v0 0zM718.168 755.438c0 21.64 17.508 39.26 39.086 39.26h0.962c21.549 0 39.083-17.62 39.083-39.26v-116.391c0-21.635-17.535-39.259-39.083-39.259h-0.962c-21.578 0-39.086 17.624-39.086 39.259v116.391zM226.611 755.438c0 21.64 17.506 39.26 39.090 39.26h0.986c21.524 0 39.084-17.62 39.084-39.26v-116.391c0-21.635-17.565-39.259-39.084-39.259h-0.986c-21.585 0-39.090 17.624-39.090 39.259v116.391zM863.788 39.331h-703.573c-7.066 0-13.031 6.075-13.031 13.114v459.95h729.638v-459.95c-0.006-7.038-5.966-13.114-13.034-13.114v0 0z" />
<glyph unicode="&#xe67b;" glyph-name="fenlei" d="M349.535 832.634h-191.447c-52.782 0-95.723-42.941-95.723-95.723v-191.447c0-52.782 42.941-95.723 95.723-95.723h191.447c52.782 0 95.723 42.941 95.723 95.723v191.446c0 52.783-42.941 95.724-95.723 95.724zM381.443 545.463c0-17.594-14.314-31.908-31.908-31.908h-191.447c-17.594 0-31.908 14.314-31.908 31.908v191.446c0 17.594 14.314 31.908 31.908 31.908h191.447c17.594 0 31.908-14.314 31.908-31.908v-191.446zM349.535 385.924h-191.447c-52.782 0-95.723-42.941-95.723-95.723v-191.446c0-52.782 42.941-95.723 95.723-95.723h191.447c52.782 0 95.723 42.941 95.723 95.723v191.446c0 52.782-42.941 95.723-95.723 95.723zM381.443 98.754c0-17.594-14.314-31.909-31.908-31.909h-191.447c-17.594 0-31.908 14.314-31.908 31.909v191.446c0 17.594 14.314 31.909 31.908 31.909h191.447c17.594 0 31.908-14.314 31.908-31.909v-191.446zM604.796 448.895h191.447c52.782 0 95.723 42.941 95.723 95.723v191.447c0 52.782-42.941 95.723-95.723 95.723h-191.447c-52.782 0-95.723-42.941-95.723-95.723v-191.446c0-52.783 42.941-95.724 95.723-95.724zM572.889 736.065c0 17.594 14.314 31.908 31.909 31.908h191.447c17.594 0 31.909-14.314 31.909-31.908v-191.446c0-17.594-14.314-31.908-31.909-31.908h-191.448c-17.594 0-31.909 14.314-31.909 31.908v191.446zM700.521 290.201c-52.782 0-95.723-42.941-95.723-95.723 0-17.622 14.285-31.908 31.908-31.908s31.908 14.285 31.908 31.908c0 17.594 14.314 31.909 31.909 31.909 17.622 0 31.908 14.285 31.908 31.908s-14.286 31.907-31.909 31.907zM927.747 12.376l-71.232 71.232c22.314 31.305 35.453 69.582 35.453 110.869 0 105.564-85.882 191.446-191.446 191.446s-191.447-85.882-191.447-191.446 85.883-191.446 191.447-191.446c41.287 0 79.563 13.138 110.869 35.452l71.232-71.232c12.41-12.41 32.715-12.41 45.125 0v0c12.408 12.41 12.408 32.715-0.001 45.125zM572.889 194.478c0 70.376 57.256 127.632 127.633 127.632s127.632-57.255 127.632-127.632-57.255-127.632-127.632-127.632-127.633 57.255-127.633 127.632z" />
<glyph unicode="&#xe680;" glyph-name="yinyue" d="M179.2-128c-97.745 0-179.2 79.127-179.2 179.2s79.127 179.2 179.2 179.2c39.564 0 76.8-13.964 109.382-37.236l9.309-6.982v574.836c0 34.909 27.927 62.836 60.509 62.836l602.764 69.818c32.582 2.327 62.836-25.6 62.836-60.509v-672.582c0-48.873-18.618-93.091-53.527-125.673-32.582-32.582-79.127-51.2-125.673-51.2-97.745 0-179.2 79.127-179.2 179.2 0 97.745 79.127 179.2 179.2 179.2 39.564 0 79.127-13.964 109.382-37.236l9.309-6.982v311.855l-605.091-65.164v-493.382c-2.327-100.073-81.455-179.2-179.2-179.2zM179.2 167.564c-65.164 0-118.691-53.527-118.691-118.691s53.527-118.691 118.691-118.691 118.691 53.527 118.691 118.691c-2.327 67.491-53.527 118.691-118.691 118.691zM844.8 279.273c-65.164 0-118.691-53.527-118.691-118.691s53.527-118.691 118.691-118.691 118.691 53.527 118.691 118.691-53.527 118.691-118.691 118.691zM356.073 605.091l605.091 65.164v165.236l-598.109-69.818h-6.982v-160.582z" />
<glyph unicode="&#xe6c8;" glyph-name="erji" d="M79.933 370.737l75.406 20.025v9.74c0 21.511 14.936 39.681 34.949 44.687 7.515 68.819 34.183 125.646 72.241 169.815l-25.794 22.071c34.661 40.582 77.793 71.396 124.541 92.104 48.643 21.525 101.719 32.151 153.568 31.429 46.788-0.655 97.723-11.404 145.821-32.642 43.746-19.317 86.019-47.662 121.758-85.406l-23.599-22.303c43.187-44.973 75.285-104.284 85.351-178.49 15.182-7.557 25.672-23.245 25.672-41.264v-9.74l75.392-20.025c21.281-76.374 20.666-152.736 0-229.111l-75.392-24.745v-18.347c0-25.33-20.72-46.038-46.038-46.038h-0.014c-25.317 0-46.038 20.708-46.038 46.038v301.966c0 13.9 6.234 26.408 16.041 34.866-8.69 62.557-35.671 112.373-71.86 149.967l-22.358-21.13c-24.213 25.577-53.8 45.207-85.023 58.998-34.308 15.14-69.555 22.807-101.066 23.243-35.37 0.492-72.037-6.956-106.111-22.043-31.729-14.051-60.77-34.689-83.797-61.643l-22.453 19.192c-34.17-39.681-57.387-91.789-61.589-155.764 4.937-7.185 7.885-16.072 7.885-25.647 0-0.014 0-0.027 0-0.041v0.002-301.968c0-25.33-20.72-46.038-46.038-46.038h-0.014c-25.331 0-46.038 20.708-46.038 46.038v18.347l-75.406 24.745c-20.649 76.376-21.264 152.737 0.003 229.112zM758.918 364.149l-21.906-24.704v-176.335l21.906-20.23v221.269zM266.266 364.149v-221.269l21.894 20.23v176.335l-21.894 24.704z" />
<glyph unicode="&#xe6e0;" glyph-name="yifuhuanfu" d="M1006.643 744.786c-0.037 0 0.143 0.071 0.108 0.108l-302.25 117.427c-1.75 0.428-3.392 1.106-5.286 1.106-9.214 0-17.106-5.358-20.822-13.071l-5.464-10.072c-30.749-56.713-90.929-90.571-160.929-90.571s-130.178 33.858-160.929 90.571l-6.036 11.107c-3.928 7.036-11.215 12.036-19.893 12.036-2.178 0-4.072-0.715-6.071-1.285l-301.678-117.213c0 0 0.214-0.143 0.179-0.143-10.357-4.785-17.536-15.285-17.536-27.465 0-0.037-0.037-0.071-0.037-0.108v-307.714c0.964-15.892 13.857-28.535 29.928-28.535 4.178 0 8.179 0.858 11.822 2.394 0.071 0.037 0.037-0.071 0.071-0.071l141.036 56.141v-537.143c0-16.75 13.572-30.285 30.285-30.285h597.714c16.715 0 30.285 13.535 30.285 30.285v537.43l141.144-56.464c0.108-0.037 0.037 0.143 0.143 0.108 3.643-1.536 7.643-2.394 11.822-2.394 15.786 0 28.321 12.178 29.751 27.643v309.928c-0.464 11.643-7.356 21.643-17.357 26.251zM950.857 474.571l-150.213 60.072c-2.394 0.786-4.928 1.357-7.572 1.357-13.714 0-24.858-11.107-25.072-24.786v-566.071h-512v569.571c-1.929 11.964-11.856 21.286-24.357 21.286-2.536 0-4.893-0.571-7.214-1.285l-151.287-60.215v213.608l231.036 89.785c46.678-64 122.178-101.321 207.821-101.321s161.143 37.321 207.821 101.321l231.036-89.785v-213.537z" />
<glyph unicode="&#xe6e8;" glyph-name="shouyinji01" d="M109.679 4.772h800.56c28.764 0 49.92 28.279 49.92 57.071v495.405c0 28.764-21.156 54.242-49.92 54.242h-525.133l377.152 124.685c7.218 2.397 11.123 9.683 8.713 16.914-2.41 7.217-10.168 11.904-17.439 9.508l-455.594-151.107h-188.259c-28.777 0-45.84-25.478-45.84-54.242v-495.406c0-28.791 17.063-57.070 45.84-57.070zM946.369 70.729c0-13.601-11.016-24.617-24.603-24.617h-805.744c-13.587 0-24.603 11.016-24.603 24.617v488.606c0 13.574 11.016 24.59 24.603 24.59h805.745c13.587 0 24.603-11.016 24.603-24.59v-488.606zM891.211 308.141v193.032h-372.318v-193.032h372.318zM546.473 473.609h317.159v-137.908h-135.363l40.668 57.567c4.565 6.1 3.34 16.416-2.748 20.981-6.114 4.565-14.732 0.835-19.311-5.252l-53.098-73.296h-147.308v137.908zM133.783 487.398c0 7.608 6.166 13.776 13.79 13.776h305.16c7.622 0 13.79-6.167 13.79-13.776 0-7.623-6.167-13.79-13.79-13.79h-305.16c-7.623 0.001-13.79 6.168-13.79 13.79zM133.783 404.661c0 7.622 6.166 13.79 13.79 13.79h305.16c7.622 0 13.79-6.167 13.79-13.79 0-7.635-6.167-13.803-13.79-13.803h-305.16c-7.623 0.001-13.79 6.168-13.79 13.803zM133.783 321.931c0 7.614 6.166 13.77 13.79 13.77h305.16c7.622 0 13.79-6.155 13.79-13.77 0-7.622-6.167-13.79-13.79-13.79h-305.16c-7.623 0-13.79 6.167-13.79 13.79zM133.783 252.984c0 7.595 6.166 13.789 13.79 13.789h305.16c7.622 0 13.79-6.194 13.79-13.789 0-7.623-6.167-13.79-13.79-13.79h-305.16c-7.623 0-13.79 6.166-13.79 13.79zM133.783 170.219c0 7.649 6.166 13.79 13.79 13.79h305.16c7.622 0 13.79-6.141 13.79-13.79 0-7.595-6.167-13.79-13.79-13.79h-305.16c-7.623 0-13.79 6.195-13.79 13.79zM796.045 266.1c-28.642 0-51.94-23.27-51.94-51.927 0-28.63 23.298-51.926 51.94-51.926 28.63 0 51.926 23.297 51.926 51.926 0 28.657-23.296 51.927-51.926 51.927zM796.045 189.827c-13.426 0-24.361 10.935-24.361 24.347 0 13.44 10.935 24.374 24.361 24.374s24.348-10.935 24.348-24.374c0-13.412-10.922-24.347-24.348-24.347zM605.321 266.1c-28.642 0-51.94-23.27-51.94-51.927 0-28.63 23.298-51.926 51.94-51.926 28.63 0 51.926 23.297 51.926 51.926 0 28.657-23.296 51.927-51.926 51.927zM605.321 189.827c-13.426 0-24.361 10.935-24.361 24.347 0 13.44 10.935 24.374 24.361 24.374s24.348-10.935 24.348-24.374c0-13.412-10.922-24.347-24.348-24.347z" />
<glyph unicode="&#xe706;" glyph-name="rili" d="M53.062 797.463c-29.277 0-53.062-26.438-53.062-59.113v-807.238c0-32.582 23.785-59.113 53.062-59.113h917.876c29.277 0 53.062 26.438 53.062 59.113v807.238c0 32.582-23.785 59.113-53.062 59.113h-194.095l35.281-39.331v98.49c0 21.737-15.825 39.377-35.281 39.377-19.549 0-35.328-17.641-35.328-39.377v-137.961h229.423c-9.775 0-17.548 8.704-17.548 19.596v-807.145c0 10.845 7.866 19.596 17.501 19.596h-917.783c9.728 0 17.501-8.704 17.501-19.596v807.191c0-10.845-7.866-19.596-17.501-19.596h194.095c19.456 0 35.281 17.641 35.281 39.377s-15.825 39.377-35.328 39.377h-194.095zM211.875 758.086c0-21.737 15.825-39.377 35.281-39.377 19.549 0 35.328 17.641 35.328 39.377v98.537c0 21.69-15.825 39.377-35.328 39.377s-35.281-17.641-35.281-39.377v-98.537zM1024 561.199v39.377h-1024v-137.914c0-21.737 15.825-39.377 35.328-39.377s35.281 17.641 35.281 39.377v98.49l-35.235-39.377h953.251l-35.281 39.377v-98.444c0-21.737 15.825-39.377 35.281-39.377 19.549 0 35.328 17.641 35.328 39.377v98.444zM776.937 305.292c19.503 0 35.328 17.641 35.328 39.377s-15.825 39.377-35.328 39.377h-529.78c-19.503 0-35.281-17.641-35.281-39.377s15.825-39.377 35.281-39.377h529.78zM247.156 187.113c-19.503 0-35.281-17.687-35.281-39.424s15.825-39.377 35.281-39.377h353.28c19.503 0 35.328 17.687 35.328 39.377 0 21.783-15.825 39.424-35.375 39.424h-353.233zM776.844 718.662l-35.328 39.377v-78.848c0-21.737 15.825-39.377 35.328-39.377s35.281 17.641 35.281 39.377v118.225h-564.969c-19.503 0-35.281-17.641-35.281-39.377s15.825-39.377 35.281-39.377h529.687zM282.484 758.086c0 21.737-15.825 39.377-35.328 39.377s-35.281-17.641-35.281-39.377v-78.848c0-21.737 15.825-39.377 35.281-39.377 19.549 0 35.328 17.641 35.328 39.377v78.848z" />
<glyph unicode="&#xe74b;" glyph-name="yinyuewenjian" d="M607.662 164.137c-26.972-6.758-50.637-21.565-66.652-41.728-9.257-11.653-15.473-24.658-18.565-38.062h-315.597c-24.76 0-44.923 20.152-44.923 44.923v385.669l-0.123 113.92c-0.041 5.458 2.109 10.691 5.949 14.561 3.85 3.871 9.073 6.042 14.531 6.042h159.703c8.499 0 16.097-5.253 19.139-13.189l29.112-76.411h392.366c24.781 0 44.933-20.152 44.933-44.923v-3.912l-40.96-6.636v10.557c0 2.181-1.782 3.963-3.973 3.963h-406.477c-8.499 0-16.118 5.253-19.139 13.189l-29.123 76.411h-125.245l0.266-93.44v-385.782c0-2.181 1.782-3.963 3.963-3.963h42.363v288.676c0 16.108 13.046 29.164 29.164 29.164h345.887v-275.988c-5.54-0.655-11.080-1.669-16.599-3.041zM664.771 450.365v-320.317c-13.967 4.905-30.597 5.745-47.596 1.516-37.796-9.462-62.515-40.591-55.265-69.56 4.239-26.86 43.756-44.81 81.469-35.328 33.229 8.223 56.34 33.382 56.515 59.003h0.031l0.901 270.592 195.174 35.686v-217.528c-14.193 5.007-31.181 5.888-48.425 1.618-38.164-9.564-63.15-40.97-55.839-70.298 7.311-29.256 44.165-45.24 82.34-35.789 34.775 8.786 57.068 32.645 57.068 62.536v361.062l-266.373-43.192z" />
<glyph unicode="&#xe74c;" glyph-name="yinyuediepian" d="M657.091 105.021v311.603l183.521 29.757c-29.235 154.921-165.192 272.128-328.612 272.128-184.75 0-334.51-149.76-334.51-334.51s149.76-334.51 334.51-334.51c17.92 0 35.492 1.454 52.644 4.157 13.425 22.292 37.519 40.182 68.106 47.831 8.079 2.007 16.241 3.195 24.34 3.543zM573.46 691.21l-35.84-157.020h-35.84l-25.6 157.020c37.55 18.78 97.28 0 97.28 0zM512 259.809c-68.588 0-124.191 55.603-124.191 124.191s55.603 124.191 124.191 124.191 124.191-55.603 124.191-124.191-55.603-124.191-124.191-124.191zM512 478.689c-52.224 0-94.689-42.465-94.689-94.689s42.465-94.689 94.689-94.689 94.689 42.465 94.689 94.689-42.465 94.689-94.689 94.689zM512 316.365c-37.294 0-67.635 30.341-67.635 67.635s30.351 67.635 67.635 67.635c37.304 0 67.625-30.341 67.625-67.635s-30.321-67.635-67.625-67.635zM554.834-4.055c1.628-8.991 5.192-17.347 10.322-24.852-17.418-2.232-35.133-3.512-53.146-3.512-229.622 0-416.43 186.808-416.43 416.42s186.808 416.42 416.42 416.42c203.817 0 373.801-147.251 409.436-340.931l-40.428-6.564c-32.471 174.213-185.528 306.534-369.009 306.534-207.032 0-375.46-168.428-375.46-375.46s168.428-375.46 375.46-375.46c13.865 0 27.535 0.809 41.021 2.284 0.123-4.946 0.655-9.912 1.812-14.879zM963.922 437.033v-361.042c0-29.901-22.292-53.75-57.057-62.536-38.175-9.462-75.028 6.523-82.34 35.779-7.322 29.317 17.674 60.744 55.839 70.298 17.244 4.26 34.222 3.389 48.425-1.618v217.518l-195.185-35.676-0.901-270.602h-0.041c-0.174-25.62-23.276-50.78-56.515-59.003-37.714-9.492-77.23 8.458-81.469 35.318-7.25 28.979 17.469 60.099 55.265 69.56 17.009 4.229 33.628 3.379 47.596-1.516v320.317l266.383 43.203z" />
<glyph unicode="&#xe765;" glyph-name="arrow-bottom" d="M193.8 347.9l293.2-293.2v754.3h50v-754.3l293.2 293.2 35.4-35.4-353.6-353.5-353.6 353.6 35.4 35.3z" />
<glyph unicode="&#xe76a;" glyph-name="xihuan" d="M512 678.4l44.8 44.8c99.2 102.4 262.4 102.4 361.6 0s99.2-265.6 0-368l-361.6-368c-12.8-12.8-28.8-19.2-44.8-19.2s-32 6.4-44.8 19.2l-361.6 368c-99.2 102.4-99.2 265.6 0 368s262.4 102.4 361.6 0l44.8-44.8zM873.6 400c73.6 76.8 73.6 198.4 0 275.2-33.871 35.516-81.557 57.6-134.4 57.6s-100.529-22.084-134.33-57.526l-0.070-0.074-70.4-67.2c-12.8-12.8-32-12.8-44.8 0l-67.2 70.4c-33.871 35.516-81.557 57.6-134.4 57.6s-100.529-22.084-134.33-57.526l-0.070-0.074c-73.6-76.8-73.6-198.4 0-275.2l358.4-371.2 361.6 368z" />
<glyph unicode="&#xe76c;" glyph-name="quanqiu" d="M480 832c-265.152 0-480-214.848-480-480s214.848-480 480-480 480 214.848 480 480-214.848 480-480 480zM893.696 384h-126.784c-5.504 138.56-45.952 260.992-107.136 342.72 130.368-62.656 222.208-191.36 233.92-342.72zM702.4 384h-190.4v379.264c102.848-27.392 182.336-184.576 190.4-379.264zM448 763.264v-379.264h-190.4c8.064 194.688 87.552 351.872 190.4 379.264zM300.288 726.72c-61.248-81.728-101.632-204.16-107.136-342.72h-126.848c11.712 151.36 103.552 280.064 233.984 342.72zM66.304 320h126.784c5.504-138.56 45.952-260.992 107.136-342.72-130.368 62.656-222.208 191.36-233.92 342.72zM257.6 320h190.4v-379.264c-102.848 27.392-182.336 184.576-190.4 379.264zM512-59.264v379.264h190.4c-8.064-194.688-87.552-351.872-190.4-379.264zM659.712-22.72c61.248 81.728 101.632 204.16 107.136 342.72h126.784c-11.648-151.36-103.488-280.064-233.92-342.72z" />
<glyph unicode="&#xe77e;" glyph-name="bofang" d="M222.521 731.67v-694.317l543.891 347.159-543.891 347.159M178.355 831.753c5.208 0 10.549-1.179 15.644-3.73l681.694-416.16c23.359-11.698 23.359-43.010 0-54.708l-681.694-416.161c-5.096-2.544-10.438-3.716-15.644-3.716-17.383 0-33.236 13.026-33.236 31.080v832.307c-0.001 18.047 15.838 31.088 33.236 31.088v0z" />
<glyph unicode="&#xe78c;" glyph-name="shoucang" d="M486.4 115.2c16 6.4 35.2 6.4 54.4 0l217.6-99.2-28.8 236.8c-3.2 19.2 3.2 38.4 16 51.2l163.2 176-233.6 48c-19.2 3.2-35.2 16-41.6 32l-118.4 208-118.4-208c-9.6-16-25.6-28.8-41.6-32l-233.6-48 163.2-176c12.8-12.8 19.2-32 16-51.2l-28.8-236.8 214.4 99.2zM294.4-41.6c-32-16-70.4 0-86.4 32-6.4 9.6-6.4 22.4-6.4 35.2l28.8 236.8-163.2 176c-22.4 25.6-22.4 67.2 3.2 89.6 9.6 6.4 19.2 12.8 32 16l233.6 48 118.4 208c16 32 57.6 41.6 86.4 25.6 9.6-6.4 19.2-12.8 25.6-25.6l118.4-208 233.6-48c35.2-6.4 57.6-41.6 51.2-76.8-3.2-12.8-6.4-22.4-16-32l-163.2-176 28.8-236.8c3.2-35.2-22.4-67.2-57.6-70.4-12.8 0-22.4 0-35.2 6.4l-217.6 99.2-214.4-99.2z" />
<glyph unicode="&#xe78f;" glyph-name="shipinbofangyingpian" d="M832 768h-704c-70.656 0-128-57.344-128-128v-576c0-70.656 57.344-128 128-128h704c70.656 0 128 57.344 128 128v576c0 70.656-57.344 128-128 128zM896 64c0-35.392-28.608-64-64-64h-704c-35.392 0-64 28.608-64 64v576c0 35.392 28.608 64 64 64h704c35.392 0 64-28.608 64-64v-576zM368.448 571.456c-9.856 5.888-22.208 6.016-32.256 0.448-9.984-5.696-16.192-16.384-16.192-27.904v-384c0-11.584 6.208-22.144 16.192-27.904 4.928-2.752 10.368-4.096 15.808-4.096 5.696 0 11.392 1.472 16.448 4.544l320.064 192c9.536 5.76 15.488 16.192 15.488 27.456s-5.952 21.632-15.488 27.456l-320.064 192zM384 216.512v270.976l225.792-135.488-225.792-135.488z" />
<glyph unicode="&#xe794;" glyph-name="xiazai" d="M544 252.8l131.2 131.2c12.8 12.8 32 12.8 44.8 0s12.8-32 0-44.8l-156.8-156.8c-25.6-25.6-64-25.6-89.6 0l-156.8 156.8c-12.8 12.8-12.8 32 0 44.8s32 12.8 44.8 0l121.6-121.6v473.6c0 19.2 12.8 32 32 32s32-12.8 32-32v-483.2zM832 288c0 19.2 12.8 32 32 32s32-12.8 32-32v-160c0-54.4-41.6-96-96-96h-576c-54.4 0-96 41.6-96 96v160c0 19.2 12.8 32 32 32s32-12.8 32-32v-160c0-19.2 12.8-32 32-32h576c19.2 0 32 12.8 32 32v160z" />
<glyph unicode="&#xe79f;" glyph-name="zanting" d="M798.482-64.276c-17.64 0-31.939 14.312-31.939 31.952v830.584c0 17.64 14.299 31.939 31.939 31.939 17.647 0 31.946-14.299 31.946-31.939v-830.584c0-17.641-14.299-31.952-31.946-31.952zM223.469-64.276c-17.647 0-31.952 14.312-31.952 31.952v830.584c0 17.64 14.305 31.939 31.952 31.939 17.634 0 31.939-14.299 31.939-31.939v-830.584c0-17.641-14.306-31.952-31.939-31.952z" />
<glyph unicode="&#xe7bd;" glyph-name="paixingbang" d="M1002.624-85.269h-981.269c-11.797 0-21.355-9.557-21.355-21.355 0-11.819 9.557-21.376 21.355-21.376h981.269c11.84 0 21.376 9.557 21.376 21.376 0 11.797-9.536 21.355-21.376 21.355zM757.291-29.867h245.333c11.84 0 21.376 9.557 21.355 21.376v343.424c0 11.819-9.515 21.376-21.376 21.376h-245.312c-11.84 0-21.355-9.557-21.355-21.376v-343.445c0-11.797 9.515-21.355 21.355-21.355zM778.667 313.579h202.581v-300.715h-202.581v300.715zM389.333-29.867h245.312c11.861 0 21.376 9.557 21.376 21.376v883.136c0 11.797-9.515 21.355-21.376 21.355h-245.312c-11.797 0-21.355-9.557-21.355-21.355v-883.136c0-11.819 9.557-21.376 21.355-21.376zM410.709 853.269h202.581v-840.405h-202.581v840.405zM21.355-29.867h245.333c11.797 0 21.376 9.557 21.333 21.376v539.691c0 11.776-9.579 21.355-21.355 21.355h-245.312c-11.797 0-21.355-9.557-21.355-21.355v-539.691c0-11.819 9.557-21.376 21.355-21.376zM42.731 509.824h202.581v-496.939h-202.581v496.939z" />
<glyph unicode="&#xeaae;" glyph-name="erji-dingshirenwu" d="M512 896c-281.6 0-512-230.4-512-512s230.4-512 512-512 512 230.4 512 512-230.4 512-512 512zM512-64c-249.6 0-448 198.4-448 448s198.4 448 448 448 448-198.4 448-448-198.4-448-448-448zM556.8 377.6v179.2c0 19.2-12.8 32-32 32s-32-12.8-32-32v-192c0-6.4 0-19.2 6.4-19.2l198.4-204.8c6.4-6.4 12.8-12.8 25.6-12.8 6.4 0 12.8 0 19.2 6.4 12.8 12.8 12.8 32 0 44.8l-185.6 198.4z" />
<glyph unicode="&#xf0246;" glyph-name="M" d="M507.904 504.832q-72.704 0-129.024 16.896t-86.016 33.28q-1.024 1.024-1.024 5.12v8.192q0 2.048 0.512 0.512t0.512-13.824v-523.264h-115.712v614.4q0 20.48 7.168 43.52t34.816 34.304q14.336 6.144 28.16 4.608t24.576-6.144 18.432-10.24 10.752-7.68q19.456-15.36 39.936-28.672t44.544-24.064 53.76-16.896 67.584-6.144h9.216q37.888 0 67.584 6.144t54.272 16.896 45.056 24.064 38.912 28.672q3.072 2.048 10.752 7.68t18.944 10.24 25.088 6.144 28.16-4.608q26.624-11.264 34.304-34.304t7.68-43.52v-614.4h-116.736v523.264q0 12.288 1.024 13.312 1.024-3.072 0.512-7.68t-1.536-5.632q-14.336-8.192-36.864-16.896t-50.688-16.384-60.928-12.288-66.56-4.608h-7.168z" />
</font>
</defs>
</svg>
